<svg width="24" height="25" viewBox="0 0 24 25" fill="none" xmlns="http://www.w3.org/2000/svg">
<path d="M16 16.3848L12 12.3848L8 16.3848" stroke="#8D979B" stroke-width="1.5" stroke-linecap="round" stroke-linejoin="round"/>
<path d="M12 12.3848V21.3848" stroke="#8D979B" stroke-width="1.5" stroke-linecap="round" stroke-linejoin="round"/>
<path d="M20.39 18.7748C21.3653 18.2431 22.1358 17.4017 22.5798 16.3834C23.0239 15.3652 23.1162 14.228 22.8422 13.1515C22.5682 12.075 21.9434 11.1203 21.0666 10.4383C20.1898 9.75619 19.1108 9.38554 18 9.38481H16.74C16.4373 8.21405 15.8731 7.12715 15.0899 6.2058C14.3067 5.28446 13.3248 4.55266 12.2181 4.06542C11.1113 3.57818 9.90851 3.34817 8.70008 3.39269C7.49164 3.43722 6.30903 3.75511 5.24114 4.32248C4.17325 4.88984 3.24787 5.69191 2.53458 6.66839C1.82129 7.64487 1.33865 8.77035 1.12294 9.96021C0.90723 11.1501 0.964065 12.3733 1.28917 13.5381C1.61428 14.7028 2.1992 15.7787 2.99996 16.6848" stroke="#8D979B" stroke-width="1.5" stroke-linecap="round" stroke-linejoin="round"/>
<path d="M16 16.3848L12 12.3848L8 16.3848" stroke="#8D979B" stroke-width="1.5" stroke-linecap="round" stroke-linejoin="round"/>
</svg>
