<svg width="24" height="22" viewBox="0 0 24 22" fill="none" xmlns="http://www.w3.org/2000/svg">
<path fill-rule="evenodd" clip-rule="evenodd" d="M7.3418 6.44828V2.90363C7.3418 1.90751 8.13832 1.10001 9.12088 1.10001H19.8178C20.8004 1.10001 21.5969 1.90751 21.5969 2.90363V10.0043C21.5969 11.3482 21.5969 13.0927 22.7805 14.4087C23.1678 14.8394 22.8406 15.5284 22.2681 15.4755C20.9846 15.356 20.1635 15.0727 19.6304 14.4707C19.0562 15.0897 17.9467 15.4948 17.3479 15.4948H15.2551V8.2519C15.2551 7.25579 14.4585 6.44828 13.476 6.44828H7.3418Z" stroke="#D1DADD" stroke-width="1.5" stroke-linecap="round" stroke-linejoin="round"/>
<path d="M11.1206 20.8431H2.77908C1.79652 20.8431 1 20.0356 1 19.0395V8.25189C1 7.25578 1.79652 6.44827 2.77908 6.44827H13.476C14.4586 6.44827 15.2551 7.25578 15.2551 8.25189V15.3526C15.2551 17.1448 15.2551 19.6483 18.0612 20.9C15.4796 20.9 14.072 20.7043 13.2908 19.819" stroke="#D1DADD" stroke-width="1.5" stroke-linecap="round" stroke-linejoin="round"/>
<path fill-rule="evenodd" clip-rule="evenodd" d="M6.16313 13.219C6.62806 13.219 7.00496 12.8369 7.00496 12.3655C7.00496 11.8942 6.62806 11.5121 6.16313 11.5121C5.69819 11.5121 5.32129 11.8942 5.32129 12.3655C5.32129 12.8369 5.69819 13.219 6.16313 13.219Z" fill="#D1DADD"/>
<path fill-rule="evenodd" clip-rule="evenodd" d="M10.0918 13.219C10.5568 13.219 10.9337 12.8369 10.9337 12.3655C10.9337 11.8942 10.5568 11.5121 10.0918 11.5121C9.6269 11.5121 9.25 11.8942 9.25 12.3655C9.25 12.8369 9.6269 13.219 10.0918 13.219Z" fill="#D1DADD"/>
<path fill-rule="evenodd" clip-rule="evenodd" d="M5.9502 15.4C5.9502 18.3307 10.3476 18.3346 10.3502 15.404L5.9502 15.4Z" fill="#D1DADD"/>
<path d="M20.5869 20.8431H20.6089" stroke="#D1DADD" stroke-width="1.5" stroke-linecap="round" stroke-linejoin="round"/>
</svg>
