<svg width="24" height="21" viewBox="0 0 24 21" fill="none" xmlns="http://www.w3.org/2000/svg">
<path fill-rule="evenodd" clip-rule="evenodd" d="M8.94141 9.12272C11.1505 9.12272 12.9414 7.32677 12.9414 5.11136C12.9414 2.89595 11.1505 1.10001 8.94141 1.10001C6.73227 1.10001 4.94141 2.89595 4.94141 5.11136C4.94141 7.32677 6.73227 9.12272 8.94141 9.12272Z" stroke="#D1DADD" stroke-width="1.5" stroke-linecap="round"/>
<path fill-rule="evenodd" clip-rule="evenodd" d="M18.7647 10.6565C20.2267 10.6565 21.4118 9.46798 21.4118 8.0019C21.4118 6.53581 20.2267 5.34732 18.7647 5.34732C17.3028 5.34732 16.1177 6.53581 16.1177 8.0019C16.1177 9.46798 17.3028 10.6565 18.7647 10.6565Z" stroke="#D1DADD" stroke-width="1.5" stroke-linecap="round"/>
<path fill-rule="evenodd" clip-rule="evenodd" d="M20.3285 14.4708H15.6943C16.4275 15.4041 16.8253 16.5566 16.8237 17.743V19.7799H23.0002V17.1395C22.9999 15.6655 21.8038 14.4708 20.3285 14.4708V14.4708Z" stroke="#D1DADD" stroke-width="1.5" stroke-linecap="round"/>
<path fill-rule="evenodd" clip-rule="evenodd" d="M6.31412 12.4262H11.5088C12.9183 12.4261 14.2701 12.9875 15.2669 13.9869C16.2636 14.9863 16.8235 16.3419 16.8235 17.7554V19.8H1V17.7554C1 14.8122 3.37921 12.4262 6.31412 12.4262Z" stroke="#D1DADD" stroke-width="1.5" stroke-linecap="round"/>
</svg>
