<svg width="24" height="24" viewBox="0 0 24 24" fill="none" xmlns="http://www.w3.org/2000/svg">
<path fill-rule="evenodd" clip-rule="evenodd" d="M20.9465 14.5998L22.6855 12.9015C23.0592 12.5354 23.0654 11.9368 22.6995 11.5629L20.9955 9.82794C20.3466 9.16717 19.9874 8.27636 19.9971 7.35148L20.0239 4.94312C20.0264 4.68803 19.9258 4.44269 19.7447 4.26252C19.5636 4.08235 19.3174 3.98257 19.0616 3.98571L16.7893 4.009C15.8367 4.0187 14.9213 3.64033 14.2549 2.96138L12.6647 1.3428C12.4859 1.16065 12.241 1.05798 11.9854 1.05798C11.7298 1.05798 11.485 1.16065 11.3062 1.3428L9.61854 3.06148C8.96967 3.72255 8.08403 4.0994 7.15653 4.1091L4.72135 4.13413C4.46923 4.13674 4.22848 4.23914 4.05206 4.4188C3.87565 4.59846 3.77802 4.84066 3.78067 5.09212L3.80634 7.5191C3.81643 8.44401 3.45769 9.33504 2.80905 9.99614L1.27138 11.5606C0.905445 11.9344 0.911709 12.5331 1.28539 12.8992L2.85515 14.4322C3.51783 15.0792 3.89567 15.9623 3.90555 16.8871L3.92889 19.0947C3.93426 19.6106 4.35229 20.0276 4.86958 20.0329L7.22655 20.0579C8.12888 20.0678 8.99243 20.4253 9.63663 21.0555L11.3208 22.7003C11.6903 23.061 12.2812 23.061 12.6507 22.7003L14.2327 21.1556C14.8953 20.5086 15.7885 20.1506 16.7157 20.1604L18.9128 20.1837C19.1649 20.1863 19.4078 20.0889 19.5879 19.913C19.7681 19.737 19.8707 19.4969 19.8733 19.2455L19.8961 17.0559C19.9057 16.1307 20.2835 15.2471 20.9465 14.5998Z" stroke="#D1DADD" stroke-width="1.5" stroke-linecap="round" stroke-linejoin="round"/>
<path fill-rule="evenodd" clip-rule="evenodd" d="M13.2993 15.1869C15.056 14.4593 15.8918 12.449 15.1661 10.6969C14.4403 8.94478 12.4279 8.11431 10.6711 8.84198C8.91437 9.56965 8.07857 11.5799 8.80432 13.332C9.53006 15.0841 11.5425 15.9146 13.2993 15.1869Z" stroke="#D1DADD" stroke-width="1.5873" stroke-linecap="round" stroke-linejoin="round"/>
</svg>
