<svg width="92" height="92" viewBox="0 0 92 92" fill="none" xmlns="http://www.w3.org/2000/svg">
<path d="M46 91.4545C71.1038 91.4545 91.4545 71.1039 91.4545 46C91.4545 20.8961 71.1038 0.545456 46 0.545456C20.8961 0.545456 0.54541 20.8961 0.54541 46C0.54541 71.1039 20.8961 91.4545 46 91.4545Z" fill="#333F6B"/>
<path fill-rule="evenodd" clip-rule="evenodd" d="M76.2824 79.8988C85.5936 71.5752 91.4545 59.4721 91.4545 46C91.4545 20.8961 71.1038 0.545456 46 0.545456C20.8961 0.545456 0.54541 20.8961 0.54541 46C0.54541 59.4721 6.40636 71.5753 15.7176 79.8989L21.0543 60.0653C22.3419 56.4698 25.8825 54.1818 30.067 54.1818H38.4358C43.264 56.4698 48.7359 56.4698 53.2423 54.1818H61.933C66.1174 54.1818 69.6581 56.4698 70.9456 60.0653L76.2824 79.8988ZM45.5454 24.1819C54.0237 24.1819 60.5454 30.7036 60.5454 39.1819C60.5454 47.334 54.0237 54.1819 45.5454 54.1819C37.3933 54.1819 30.5454 47.334 30.5454 39.1819C30.5454 30.7036 37.3933 24.1819 45.5454 24.1819Z" fill="#D1DADD"/>
</svg>
