<svg width="36" height="36" viewBox="0 0 36 36" fill="none" xmlns="http://www.w3.org/2000/svg">
<path d="M30.0595 10.3808C30.0595 10.3808 30.0595 10.3808 30.0595 10.3808H28.9578H18.2775C17.5494 10.3808 16.8788 9.98509 16.5268 9.34773L14.205 5.14391L13.8906 4.57544L13.7855 4.38447L13.7145 4.25407C13.7144 4.25388 13.7142 4.25376 13.714 4.25376C13.7137 4.25376 13.7135 4.25364 13.7134 4.25345L13.5983 4.04226L13.5627 3.97752C13.2114 3.33792 12.5396 2.94046 11.8098 2.94046H2C0.895431 2.94046 0 3.83589 0 4.94046V24.7525C0 25.8571 0.895431 26.7525 2 26.7525H18.972C19.0096 26.7525 19.0383 26.7195 19.0349 26.682C18.9982 26.3397 18.9798 25.9923 18.9798 25.6508C18.9798 25.2806 19.0011 24.9126 19.0429 24.549C19.3147 22.1943 20.4517 20.007 22.2533 18.4257L22.2629 18.4169C22.2827 18.4 22.3019 18.3831 22.3194 18.3677C23.1105 17.686 24.0014 17.1411 24.9665 16.7474C26.1196 16.2773 27.3396 16.0386 28.5919 16.0386C28.7146 16.0386 28.8364 16.0408 28.9576 16.0459C29.3293 16.0592 29.6973 16.0944 30.0594 16.1495C30.6197 16.2344 31.1611 15.8241 31.1611 15.2574V10.9317C31.1611 10.6275 30.9145 10.3809 30.6103 10.3809H30.0595C30.0595 10.3809 30.0595 10.3808 30.0595 10.3808Z" fill="#4FC2E7"/>
<path d="M16.2307 4.25378L16.8388 5.35551L17.4469 6.45724H17.4477L18.3973 8.17736H28.9578H30.0595H31.1612V4.25378H16.2307Z" fill="#4FC2E7"/>
<path d="M35.9978 25.4877C35.9978 25.4591 35.9971 25.4312 35.9956 25.4033V25.4026C35.9949 25.3732 35.9942 25.3431 35.992 25.3137C35.9913 25.2924 35.9905 25.2704 35.989 25.2491V25.2446C35.989 25.2395 35.9883 25.2351 35.9883 25.23C35.9869 25.2086 35.9861 25.1873 35.9839 25.166C35.9824 25.13 35.9795 25.0948 35.9766 25.0588C35.9759 25.0434 35.9744 25.0287 35.9729 25.0132C35.97 24.9728 35.9656 24.9332 35.9619 24.8935C35.956 24.8392 35.9501 24.7855 35.9435 24.7319C35.9414 24.7128 35.9384 24.6937 35.9362 24.6754C35.9311 24.6336 35.9252 24.5924 35.9194 24.552C35.9172 24.5373 35.9149 24.5226 35.9127 24.5087C35.904 24.4522 35.8944 24.3956 35.8841 24.339V24.3368C35.8739 24.2781 35.8621 24.2194 35.8503 24.1606C35.8415 24.118 35.8327 24.0754 35.8232 24.0335C35.8173 24.0056 35.8106 23.9777 35.804 23.9505C35.7783 23.8404 35.7497 23.731 35.7188 23.6223C35.7078 23.5818 35.696 23.5422 35.6836 23.5025C35.6785 23.4863 35.674 23.4702 35.6689 23.4541C35.6667 23.446 35.6638 23.4379 35.6616 23.4298C35.6594 23.4217 35.6565 23.4136 35.6535 23.4056C35.6513 23.3996 35.6498 23.393 35.6476 23.3872C35.6359 23.349 35.6233 23.3123 35.6109 23.2748C35.5918 23.2168 35.5712 23.1602 35.5506 23.1037C35.5506 23.1022 35.5499 23.1008 35.5492 23.0993C35.5286 23.0434 35.508 22.9891 35.486 22.934C35.464 22.8782 35.4412 22.8224 35.4177 22.7673C35.3943 22.7115 35.3707 22.6564 35.3457 22.6021C35.3208 22.547 35.2958 22.4927 35.2694 22.439C35.2459 22.3898 35.2223 22.3414 35.1982 22.2936C35.1908 22.2797 35.1835 22.2657 35.1761 22.2518C35.1578 22.2151 35.1387 22.1791 35.1188 22.1431C35.063 22.0395 35.005 21.9374 34.9447 21.8375C34.9308 21.814 34.9168 21.7913 34.9021 21.7685C34.8823 21.7346 34.8617 21.7016 34.8404 21.6693C34.836 21.662 34.8316 21.6546 34.8265 21.648C34.8228 21.6421 34.8192 21.637 34.8154 21.6311C34.8133 21.6275 34.811 21.6245 34.8088 21.6209C34.7846 21.5834 34.7604 21.546 34.7347 21.5085C34.7016 21.4593 34.6678 21.4109 34.6333 21.3623C34.5987 21.3138 34.5642 21.2654 34.5282 21.2184C34.5003 21.1802 34.4717 21.1428 34.443 21.1061C34.44 21.1024 34.4379 21.0987 34.4349 21.0958C34.4217 21.0789 34.4085 21.0627 34.3953 21.0459C34.3938 21.0437 34.3923 21.0422 34.3908 21.04C34.3886 21.037 34.3864 21.0341 34.3835 21.0312C34.3424 20.979 34.3005 20.9276 34.2572 20.8769C34.2565 20.8754 34.255 20.8747 34.2535 20.8733C34.2109 20.8219 34.1668 20.7712 34.122 20.7212C34.1198 20.7191 34.1184 20.7168 34.1161 20.7146C34.1146 20.7131 34.1132 20.711 34.1117 20.7095C34.1087 20.7065 34.1066 20.7036 34.1036 20.7007C34.0838 20.6787 34.0632 20.6559 34.0426 20.6338C34.0412 20.6317 34.039 20.6302 34.0375 20.6279C34.0339 20.6235 34.0294 20.6198 34.0258 20.6154C34.0251 20.6147 34.0243 20.6132 34.0228 20.6125C33.9949 20.5824 33.967 20.553 33.9384 20.5229C33.9053 20.4877 33.8715 20.4538 33.837 20.4193C33.8282 20.4097 33.8186 20.401 33.8091 20.3914C33.7995 20.3818 33.7907 20.3723 33.7804 20.3628C33.7327 20.3157 33.685 20.2703 33.6357 20.2247C33.6328 20.2217 33.6291 20.2188 33.6262 20.2159C33.6255 20.2152 33.624 20.2144 33.6232 20.2129C33.6203 20.21 33.6173 20.2078 33.6144 20.2049C33.6042 20.1953 33.5931 20.1857 33.5829 20.1762C33.5718 20.166 33.5616 20.1564 33.5505 20.1469C33.5358 20.1336 33.5219 20.1204 33.5072 20.1079C33.4778 20.0815 33.4477 20.055 33.4176 20.0293C33.3868 20.0029 33.3567 19.9779 33.3258 19.9522C33.303 19.933 33.2795 19.914 33.2561 19.8949C33.2355 19.878 33.2142 19.861 33.1929 19.8442C33.1738 19.8288 33.154 19.8133 33.1341 19.7979C33.129 19.7935 33.1231 19.7891 33.1173 19.7847C33.1158 19.784 33.1136 19.7825 33.1121 19.781C33.0299 19.7171 32.9454 19.6547 32.8602 19.5945C32.8184 19.5651 32.7765 19.5365 32.7338 19.5078C32.6964 19.482 32.6582 19.4571 32.62 19.4321C32.598 19.4174 32.5759 19.4035 32.5531 19.3888C32.5384 19.3793 32.523 19.3697 32.5076 19.3609C32.479 19.3425 32.4503 19.3249 32.4217 19.308C32.382 19.2838 32.3423 19.2603 32.3019 19.2368C32.274 19.2206 32.2469 19.2052 32.2189 19.1898C32.1991 19.178 32.1793 19.167 32.1595 19.156C32.1264 19.1377 32.0926 19.12 32.0595 19.1024C32.0574 19.1017 32.0559 19.1002 32.0551 19.1002C32.0169 19.0796 31.9795 19.0605 31.9413 19.0407C31.8884 19.0143 31.8362 18.9885 31.7834 18.9636C31.74 18.9423 31.6967 18.9224 31.6534 18.9026C31.6423 18.8975 31.632 18.8923 31.621 18.8879C31.5747 18.8674 31.5277 18.8468 31.4807 18.8269C31.4778 18.8255 31.4748 18.824 31.4712 18.8233C31.4646 18.8203 31.4587 18.8174 31.452 18.8152C31.4499 18.8145 31.4484 18.8137 31.4461 18.8122C31.4014 18.7931 31.3543 18.7748 31.3088 18.7564C31.2596 18.7366 31.2104 18.7182 31.1612 18.6999C31.1494 18.6955 31.1369 18.6911 31.1252 18.6867C31.073 18.6675 31.0209 18.6492 30.968 18.6316C30.9196 18.6147 30.8704 18.5986 30.8211 18.5832C30.7947 18.5751 30.7683 18.567 30.741 18.5589C30.7007 18.5464 30.6603 18.5347 30.6191 18.5229C30.5611 18.5067 30.5023 18.4906 30.4436 18.4759C30.4024 18.4648 30.3613 18.4546 30.3202 18.445C30.293 18.4384 30.2665 18.4318 30.2394 18.4259C30.185 18.4134 30.1307 18.4016 30.0756 18.3907C29.9618 18.3679 29.8472 18.3473 29.7311 18.3297C29.7135 18.3267 29.6951 18.3238 29.6768 18.3216C29.6401 18.3157 29.6033 18.3106 29.5666 18.3062C29.5468 18.3033 29.527 18.3003 29.5071 18.2989C29.5042 18.2982 29.5012 18.2974 29.4983 18.2974C29.4587 18.2923 29.4183 18.2879 29.3779 18.2835C29.3478 18.2805 29.3176 18.2776 29.2875 18.2747C29.2729 18.2732 29.2582 18.2718 29.2435 18.2711C29.2001 18.2666 29.1568 18.2637 29.1128 18.2608C29.0606 18.2571 29.0085 18.2535 28.9563 18.2512C28.9262 18.2497 28.8968 18.2483 28.8667 18.2476C28.8579 18.2469 28.8484 18.2469 28.8396 18.2469C28.8264 18.2462 28.8131 18.2462 28.8006 18.2454C28.7874 18.2454 28.7742 18.2447 28.761 18.2447C28.7051 18.2432 28.6486 18.2425 28.592 18.2425C27.6034 18.2425 26.6603 18.4371 25.798 18.7882C25.0488 19.0938 24.3614 19.5176 23.7576 20.0368C23.7407 20.0515 23.7246 20.0662 23.7077 20.0809C22.1601 21.439 21.1833 23.4309 21.1833 25.6512C21.1833 25.9208 21.198 26.1866 21.2259 26.4481C21.2369 26.5502 21.2501 26.6523 21.2648 26.7529C21.27 26.7867 21.2751 26.8198 21.281 26.8535C21.2825 26.8631 21.2839 26.8734 21.2854 26.8829C21.2869 26.8917 21.2884 26.9006 21.2899 26.9094C21.2899 26.9108 21.2906 26.9115 21.2906 26.913C21.295 26.9365 21.2993 26.9608 21.3038 26.985C21.3074 27.0085 21.3119 27.0321 21.317 27.0562C21.3243 27.093 21.3309 27.1297 21.339 27.1664C21.3397 27.1716 21.3412 27.176 21.342 27.1811C21.3441 27.1929 21.3464 27.2039 21.3493 27.2156C21.3595 27.2619 21.3698 27.3082 21.3808 27.3544C21.3881 27.389 21.397 27.4235 21.4058 27.458C21.4073 27.4661 21.4095 27.4749 21.4117 27.483C21.4147 27.494 21.4176 27.5058 21.4205 27.5175C21.422 27.5226 21.4234 27.5285 21.4249 27.5337C21.4352 27.5726 21.4455 27.61 21.4565 27.649C21.4616 27.6681 21.4675 27.6872 21.4727 27.7063C21.4778 27.7254 21.4837 27.7445 21.4895 27.7636C21.4895 27.7643 21.4902 27.7658 21.4902 27.7665C21.4983 27.793 21.5064 27.8194 21.5145 27.8459C21.5233 27.8745 21.5321 27.9032 21.5424 27.9318C21.552 27.9648 21.5629 27.9972 21.574 28.0294C21.5923 28.0838 21.6115 28.1381 21.6313 28.1918V28.1925C21.6401 28.2168 21.6489 28.2409 21.6584 28.2652C21.6591 28.2659 21.6591 28.2674 21.6599 28.2682C21.6614 28.2726 21.6629 28.2769 21.665 28.2814C21.6657 28.2843 21.6672 28.2865 21.668 28.2895C21.6761 28.3108 21.6842 28.3321 21.6922 28.3534C21.7084 28.3952 21.7253 28.4363 21.7422 28.4768C21.7539 28.5054 21.7657 28.5341 21.7782 28.5627C21.7811 28.5693 21.7833 28.5759 21.7863 28.5818C21.7884 28.5863 21.7899 28.5914 21.7922 28.5957C21.7981 28.6104 21.8047 28.6244 21.8113 28.6384C21.8333 28.6876 21.8554 28.736 21.8774 28.7838C21.9002 28.8322 21.9229 28.8799 21.9464 28.9277C21.9611 28.9578 21.9765 28.9886 21.992 29.018C22.0016 29.0372 22.0111 29.0562 22.0214 29.0753C22.0361 29.1047 22.0515 29.1334 22.0676 29.1613C22.0904 29.2046 22.1139 29.248 22.1389 29.2906C22.1536 29.3185 22.1697 29.3456 22.1859 29.3728C22.2036 29.4037 22.2211 29.4338 22.2396 29.4639C22.2961 29.5579 22.3549 29.6504 22.4151 29.7416C22.4416 29.7812 22.468 29.8209 22.4952 29.8598C22.4982 29.8643 22.5018 29.8694 22.5048 29.8737C22.5276 29.9068 22.551 29.9398 22.5745 29.9722C22.5826 29.9832 22.5907 29.995 22.5988 30.006C22.6216 30.0376 22.6451 30.0684 22.6685 30.0993C22.6811 30.1162 22.6935 30.1331 22.7067 30.15C22.7346 30.1867 22.7625 30.2227 22.7912 30.2587C22.8176 30.2925 22.8455 30.3263 22.8727 30.3593C22.9718 30.4798 23.0754 30.5973 23.1826 30.7119C23.2112 30.7427 23.2406 30.7735 23.27 30.8037C23.2773 30.811 23.2847 30.8191 23.292 30.8265L23.2927 30.8272C23.3279 30.8639 23.3639 30.8999 23.4007 30.9359C24.7375 32.2491 26.57 33.06 28.592 33.06C32.6839 33.06 36 29.7431 36 25.6513C36 25.5964 35.9993 25.5421 35.9978 25.4877ZM32.4906 26.8244H29.6937V29.7668H27.4903V26.8244H24.6934V24.621H27.4903V21.6786H29.6937V24.621H32.4906V26.8244Z" fill="#4FC2E7"/>
</svg>
