<svg width="36" height="36" viewBox="0 0 36 36" fill="none" xmlns="http://www.w3.org/2000/svg">
<path d="M30.0595 10.3809C30.0595 10.3808 30.0595 10.3808 30.0595 10.3808H28.9578H18.2775C17.5494 10.3808 16.8788 9.98512 16.5268 9.34776L14.205 5.14394L13.8906 4.57547L13.7855 4.3845L13.7145 4.2541C13.7144 4.25391 13.7142 4.25379 13.714 4.25379C13.7137 4.25379 13.7135 4.25367 13.7134 4.25348L13.5983 4.04229L13.5627 3.97755C13.2114 3.33795 12.5396 2.94049 11.8098 2.94049H2C0.895431 2.94049 0 3.83592 0 4.94049V24.7525C0 25.8571 0.895431 26.7525 2 26.7525H18.972C19.0096 26.7525 19.0383 26.7195 19.0349 26.682C18.9982 26.3397 18.9798 25.9923 18.9798 25.6508C18.9798 25.2806 19.0011 24.9127 19.0429 24.5491C19.3147 22.1943 20.4517 20.007 22.2533 18.4257L22.2629 18.4169C22.2827 18.4 22.3019 18.3831 22.3194 18.3677C23.1105 17.6861 24.0014 17.1411 24.9665 16.7474C26.1196 16.2774 27.3396 16.0387 28.5919 16.0387C28.7146 16.0387 28.8364 16.0408 28.9576 16.046C29.3293 16.0592 29.6973 16.0944 30.0594 16.1495C30.6197 16.2344 31.1611 15.8241 31.1611 15.2574V10.9317C31.1611 10.6275 30.9145 10.3809 30.6103 10.3809H30.0595C30.0595 10.3809 30.0595 10.3809 30.0595 10.3809Z" fill="url(#paint0_linear)"/>
<path d="M16.2307 4.25378L16.8388 5.35551L17.447 6.45724H17.4478L18.3974 8.17736H28.9578H30.0596H31.1613V4.25378H16.2307Z" fill="url(#paint1_linear)"/>
<path d="M35.9978 25.4877C35.9978 25.4591 35.9971 25.4312 35.9956 25.4033V25.4026C35.9949 25.3732 35.9941 25.3431 35.992 25.3137C35.9912 25.2924 35.9905 25.2704 35.989 25.2491V25.2446C35.989 25.2395 35.9883 25.2351 35.9883 25.2299C35.9868 25.2086 35.9861 25.1873 35.9839 25.166C35.9824 25.13 35.9794 25.0948 35.9766 25.0588C35.9759 25.0434 35.9744 25.0287 35.9729 25.0132C35.9699 24.9728 35.9656 24.9331 35.9619 24.8935C35.956 24.8391 35.9501 24.7855 35.9435 24.7319C35.9413 24.7128 35.9384 24.6937 35.9362 24.6754C35.9311 24.6335 35.9252 24.5924 35.9193 24.552C35.9171 24.5373 35.9149 24.5226 35.9127 24.5087C35.9039 24.4521 35.8944 24.3955 35.8841 24.339V24.3368C35.8738 24.278 35.8621 24.2193 35.8503 24.1606C35.8415 24.1179 35.8326 24.0753 35.8231 24.0335C35.8172 24.0056 35.8106 23.9777 35.804 23.9505C35.7783 23.8404 35.7497 23.7309 35.7188 23.6222C35.7078 23.5818 35.696 23.5422 35.6836 23.5025C35.6784 23.4863 35.674 23.4702 35.6689 23.4541C35.6667 23.446 35.6637 23.4379 35.6616 23.4298C35.6594 23.4217 35.6564 23.4136 35.6535 23.4055C35.6513 23.3996 35.6498 23.393 35.6476 23.3872C35.6358 23.349 35.6233 23.3123 35.6109 23.2748C35.5917 23.2168 35.5712 23.1602 35.5506 23.1037C35.5506 23.1022 35.5499 23.1007 35.5491 23.0993C35.5286 23.0434 35.508 22.9891 35.486 22.934C35.464 22.8782 35.4412 22.8224 35.4177 22.7673C35.3942 22.7115 35.3707 22.6564 35.3457 22.6021C35.3208 22.547 35.2958 22.4927 35.2694 22.439C35.2459 22.3898 35.2223 22.3414 35.1981 22.2936C35.1908 22.2797 35.1834 22.2657 35.1761 22.2518C35.1578 22.2151 35.1386 22.1791 35.1188 22.1431C35.063 22.0395 35.005 21.9374 34.9447 21.8375C34.9308 21.814 34.9168 21.7912 34.9021 21.7685C34.8823 21.7346 34.8617 21.7016 34.8404 21.6693C34.8359 21.662 34.8316 21.6546 34.8265 21.648C34.8228 21.6421 34.8191 21.637 34.8154 21.6311C34.8132 21.6275 34.811 21.6245 34.8088 21.6209C34.7845 21.5834 34.7604 21.546 34.7346 21.5085C34.7016 21.4593 34.6678 21.4108 34.6332 21.3623C34.5987 21.3138 34.5642 21.2654 34.5282 21.2184C34.5003 21.1802 34.4717 21.1427 34.443 21.106C34.44 21.1024 34.4378 21.0987 34.4349 21.0958C34.4217 21.0789 34.4084 21.0627 34.3952 21.0459C34.3938 21.0437 34.3923 21.0422 34.3908 21.0399C34.3886 21.037 34.3864 21.034 34.3835 21.0312C34.3424 20.979 34.3005 20.9276 34.2571 20.8769C34.2564 20.8754 34.255 20.8747 34.2535 20.8732C34.2109 20.8218 34.1668 20.7711 34.122 20.7212C34.1198 20.719 34.1183 20.7168 34.1161 20.7146C34.1146 20.7131 34.1131 20.711 34.1117 20.7095C34.1087 20.7065 34.1065 20.7036 34.1036 20.7007C34.0837 20.6787 34.0631 20.6559 34.0426 20.6338C34.0411 20.6316 34.039 20.6302 34.0375 20.6279C34.0338 20.6235 34.0294 20.6198 34.0257 20.6154C34.025 20.6147 34.0243 20.6132 34.0228 20.6124C33.9949 20.5824 33.967 20.553 33.9383 20.5229C33.9053 20.4876 33.8715 20.4538 33.8369 20.4193C33.8282 20.4097 33.8186 20.4009 33.809 20.3914C33.7995 20.3818 33.7907 20.3723 33.7804 20.3628C33.7327 20.3157 33.6849 20.2702 33.6357 20.2247C33.6328 20.2217 33.6291 20.2188 33.6262 20.2159C33.6254 20.2152 33.624 20.2144 33.6232 20.2129C33.6202 20.21 33.6173 20.2078 33.6144 20.2048C33.6041 20.1953 33.5931 20.1857 33.5828 20.1762C33.5718 20.166 33.5615 20.1564 33.5505 20.1468C33.5358 20.1336 33.5219 20.1204 33.5072 20.1079C33.4778 20.0814 33.4477 20.055 33.4176 20.0293C33.3867 20.0028 33.3566 19.9779 33.3258 19.9521C33.303 19.933 33.2795 19.914 33.256 19.8948C33.2355 19.878 33.2142 19.861 33.1929 19.8441C33.1738 19.8287 33.1539 19.8133 33.1341 19.7979C33.129 19.7934 33.1231 19.7891 33.1172 19.7847C33.1158 19.784 33.1136 19.7825 33.1121 19.781C33.0298 19.7171 32.9454 19.6546 32.8602 19.5945C32.8183 19.5651 32.7764 19.5365 32.7338 19.5078C32.6963 19.482 32.6582 19.4571 32.62 19.4321C32.598 19.4174 32.5759 19.4035 32.5531 19.3888C32.5384 19.3792 32.523 19.3697 32.5075 19.3609C32.4789 19.3425 32.4502 19.3249 32.4216 19.308C32.382 19.2837 32.3423 19.2603 32.3019 19.2368C32.274 19.2206 32.2468 19.2052 32.2189 19.1897C32.1991 19.178 32.1793 19.167 32.1594 19.156C32.1264 19.1376 32.0926 19.12 32.0595 19.1023C32.0573 19.1016 32.0559 19.1002 32.0551 19.1002C32.0169 19.0796 31.9794 19.0605 31.9412 19.0407C31.8884 19.0142 31.8362 18.9885 31.7833 18.9635C31.74 18.9422 31.6966 18.9224 31.6533 18.9026C31.6423 18.8975 31.632 18.8923 31.621 18.8879C31.5747 18.8674 31.5277 18.8468 31.4807 18.8269C31.4778 18.8255 31.4748 18.824 31.4711 18.8233C31.4645 18.8203 31.4586 18.8174 31.452 18.8152C31.4498 18.8145 31.4484 18.8137 31.4461 18.8122C31.4013 18.7931 31.3543 18.7748 31.3088 18.7564C31.2596 18.7366 31.2104 18.7182 31.1611 18.6999C31.1494 18.6954 31.1369 18.6911 31.1251 18.6867C31.073 18.6675 31.0209 18.6492 30.968 18.6316C30.9195 18.6147 30.8703 18.5986 30.8211 18.5832C30.7947 18.5751 30.7682 18.567 30.741 18.5589C30.7007 18.5464 30.6602 18.5346 30.6191 18.5229C30.5611 18.5067 30.5023 18.4906 30.4435 18.4759C30.4024 18.4648 30.3613 18.4546 30.3201 18.445C30.293 18.4384 30.2665 18.4318 30.2393 18.4259C30.185 18.4134 30.1306 18.4016 30.0756 18.3906C29.9617 18.3679 29.8471 18.3473 29.7311 18.3297C29.7135 18.3267 29.6951 18.3238 29.6768 18.3216C29.6401 18.3157 29.6033 18.3106 29.5666 18.3062C29.5468 18.3032 29.5269 18.3003 29.5071 18.2989C29.5041 18.2982 29.5012 18.2974 29.4983 18.2974C29.4587 18.2923 29.4182 18.2878 29.3779 18.2835C29.3478 18.2805 29.3176 18.2776 29.2875 18.2747C29.2728 18.2732 29.2581 18.2717 29.2434 18.271C29.2001 18.2666 29.1567 18.2637 29.1127 18.2608C29.0605 18.2571 29.0084 18.2535 28.9563 18.2512C28.9262 18.2497 28.8968 18.2483 28.8667 18.2476C28.8579 18.2469 28.8483 18.2469 28.8396 18.2469C28.8263 18.2461 28.8131 18.2461 28.8006 18.2454C28.7874 18.2454 28.7742 18.2447 28.7609 18.2447C28.7051 18.2432 28.6486 18.2425 28.592 18.2425C27.6034 18.2425 26.6603 18.4371 25.798 18.7882C25.0488 19.0938 24.3614 19.5175 23.7576 20.0368C23.7407 20.0515 23.7245 20.0662 23.7077 20.0809C22.1601 21.439 21.1832 23.4309 21.1832 25.6512C21.1832 25.9208 21.1979 26.1866 21.2258 26.4481C21.2369 26.5502 21.2501 26.6523 21.2648 26.7529C21.2699 26.7867 21.2751 26.8198 21.281 26.8535C21.2824 26.8631 21.2839 26.8734 21.2854 26.8829C21.2869 26.8917 21.2883 26.9006 21.2898 26.9094C21.2898 26.9108 21.2905 26.9115 21.2905 26.913C21.295 26.9365 21.2993 26.9607 21.3037 26.985C21.3074 27.0085 21.3118 27.032 21.317 27.0562C21.3243 27.0929 21.3309 27.1297 21.339 27.1664C21.3397 27.1715 21.3411 27.176 21.3419 27.1811C21.3441 27.1929 21.3464 27.2039 21.3492 27.2156C21.3595 27.2619 21.3698 27.3082 21.3808 27.3544C21.3881 27.389 21.397 27.4235 21.4058 27.458C21.4072 27.4661 21.4094 27.4749 21.4117 27.483C21.4146 27.494 21.4176 27.5057 21.4205 27.5175C21.4219 27.5226 21.4234 27.5285 21.4249 27.5337C21.4352 27.5726 21.4454 27.61 21.4565 27.649C21.4616 27.6681 21.4675 27.6871 21.4726 27.7063C21.4778 27.7254 21.4837 27.7445 21.4895 27.7636C21.4895 27.7643 21.4902 27.7658 21.4902 27.7665C21.4983 27.793 21.5064 27.8194 21.5145 27.8458C21.5233 27.8745 21.5321 27.9031 21.5424 27.9318C21.5519 27.9648 21.5629 27.9972 21.574 28.0294C21.5923 28.0838 21.6114 28.1381 21.6313 28.1918V28.1925C21.64 28.2167 21.6489 28.2409 21.6584 28.2652C21.6591 28.2659 21.6591 28.2674 21.6599 28.2681C21.6614 28.2726 21.6628 28.2769 21.665 28.2814C21.6657 28.2843 21.6672 28.2865 21.668 28.2894C21.676 28.3107 21.6841 28.3321 21.6922 28.3534C21.7084 28.3952 21.7253 28.4363 21.7421 28.4768C21.7539 28.5054 21.7656 28.5341 21.7781 28.5627C21.7811 28.5693 21.7833 28.5759 21.7862 28.5818C21.7884 28.5862 21.7899 28.5914 21.7921 28.5957C21.798 28.6104 21.8046 28.6243 21.8113 28.6383C21.8333 28.6876 21.8553 28.736 21.8774 28.7837C21.9001 28.8322 21.9229 28.8799 21.9464 28.9277C21.9611 28.9578 21.9765 28.9886 21.992 29.018C22.0015 29.0371 22.0111 29.0562 22.0214 29.0753C22.036 29.1047 22.0514 29.1333 22.0676 29.1613C22.0904 29.2046 22.1139 29.2479 22.1388 29.2906C22.1535 29.3185 22.1697 29.3456 22.1859 29.3728C22.2035 29.4037 22.2211 29.4338 22.2395 29.4639C22.2961 29.5579 22.3548 29.6504 22.4151 29.7415C22.4415 29.7812 22.468 29.8209 22.4952 29.8598C22.4981 29.8642 22.5018 29.8694 22.5047 29.8737C22.5275 29.9068 22.551 29.9398 22.5745 29.9722C22.5826 29.9832 22.5907 29.9949 22.5988 30.006C22.6215 30.0376 22.645 30.0684 22.6685 30.0993C22.681 30.1162 22.6935 30.1331 22.7067 30.15C22.7346 30.1867 22.7625 30.2227 22.7911 30.2587C22.8176 30.2925 22.8455 30.3263 22.8726 30.3593C22.9718 30.4798 23.0753 30.5972 23.1826 30.7119C23.2112 30.7427 23.2406 30.7735 23.27 30.8037C23.2773 30.811 23.2847 30.8191 23.292 30.8265L23.2927 30.8272C23.3279 30.8639 23.3639 30.8999 23.4007 30.9359C24.7375 32.2491 26.5699 33.06 28.592 33.06C32.6838 33.06 36 29.7431 36 25.6512C36 25.5964 35.9993 25.5421 35.9978 25.4877ZM32.4906 26.8244H29.6937V29.7668H27.4903V26.8244H24.6934V24.621H27.4903V21.6786H29.6937V24.621H32.4906V26.8244Z" fill="url(#paint2_linear)"/>
<defs>
<linearGradient id="paint0_linear" x1="15.5805" y1="2.94049" x2="15.5805" y2="26.7525" gradientUnits="userSpaceOnUse">
<stop stop-color="#F7C300"/>
<stop offset="1" stop-color="#FE1F00"/>
</linearGradient>
<linearGradient id="paint1_linear" x1="23.696" y1="4.25378" x2="23.696" y2="8.17736" gradientUnits="userSpaceOnUse">
<stop stop-color="#F7C300"/>
<stop offset="1" stop-color="#FE1F00"/>
</linearGradient>
<linearGradient id="paint2_linear" x1="28.5916" y1="18.2425" x2="28.5916" y2="33.06" gradientUnits="userSpaceOnUse">
<stop stop-color="#F7C300"/>
<stop offset="1" stop-color="#FE1F00"/>
</linearGradient>
</defs>
</svg>
