<svg width="22" height="20" viewBox="0 0 22 20" fill="none" xmlns="http://www.w3.org/2000/svg">
<path fill-rule="evenodd" clip-rule="evenodd" d="M6.76526 5.86207V2.63966C6.76526 1.7341 7.48937 1 8.38261 1H18.1071C19.0003 1 19.7244 1.7341 19.7244 2.63966V9.09483C19.7244 10.3166 19.7244 11.9024 20.8005 13.0988C21.1525 13.4903 20.8551 14.1167 20.3346 14.0686C19.1678 13.96 18.4214 13.7024 17.9367 13.1552C17.4147 13.7179 16.4061 14.0862 15.8617 14.0862H13.9591V7.50172C13.9591 6.59617 13.235 5.86207 12.3418 5.86207H6.76526Z" stroke="url(#paint0_linear)" stroke-width="1.5" stroke-linecap="round" stroke-linejoin="round"/>
<path d="M10.2005 18.9483H2.61735C1.72411 18.9483 1 18.2142 1 17.3086V7.50172C1 6.59616 1.72411 5.86206 2.61735 5.86206H12.3418C13.2351 5.86206 13.9592 6.59616 13.9592 7.50172V13.9569C13.9592 15.5862 13.9592 17.8621 16.5102 19C14.1633 19 12.8837 18.8221 12.1735 18.0172" stroke="url(#paint1_linear)" stroke-width="1.5" stroke-linecap="round" stroke-linejoin="round"/>
<path fill-rule="evenodd" clip-rule="evenodd" d="M5.69389 12.0173C6.11656 12.0173 6.4592 11.6699 6.4592 11.2414C6.4592 10.8129 6.11656 10.4656 5.69389 10.4656C5.27123 10.4656 4.92859 10.8129 4.92859 11.2414C4.92859 11.6699 5.27123 12.0173 5.69389 12.0173Z" fill="#242424"/>
<path fill-rule="evenodd" clip-rule="evenodd" d="M9.26531 12.0173C9.68797 12.0173 10.0306 11.6699 10.0306 11.2414C10.0306 10.8129 9.68797 10.4656 9.26531 10.4656C8.84264 10.4656 8.5 10.8129 8.5 11.2414C8.5 11.6699 8.84264 12.0173 9.26531 12.0173Z" fill="#242424"/>
<path d="M5.7959 14.2069C5.7959 16.5014 9.19539 16.5045 9.19743 14.21" stroke="#242424" stroke-width="1.5" stroke-linecap="round" stroke-linejoin="round"/>
<path d="M18.8062 18.9482H18.8262" stroke="#242424" stroke-width="1.5" stroke-linecap="round" stroke-linejoin="round"/>
<defs>
<linearGradient id="paint0_linear" x1="13.8594" y1="1" x2="13.8594" y2="14.0862" gradientUnits="userSpaceOnUse">
<stop stop-color="#F7C300"/>
<stop offset="1" stop-color="#FE1F00"/>
</linearGradient>
<linearGradient id="paint1_linear" x1="8.7551" y1="5.86206" x2="8.7551" y2="19" gradientUnits="userSpaceOnUse">
<stop stop-color="#F7C300"/>
<stop offset="1" stop-color="#FE1F00"/>
</linearGradient>
</defs>
</svg>
