<svg width="22" height="20" viewBox="0 0 22 20" fill="none" xmlns="http://www.w3.org/2000/svg">
<path fill-rule="evenodd" clip-rule="evenodd" d="M6.76532 5.86207V2.63966C6.76532 1.7341 7.48943 1 8.38267 1H18.1072C19.0004 1 19.7245 1.7341 19.7245 2.63966V9.09483C19.7245 10.3166 19.7245 11.9024 20.8005 13.0988C21.1526 13.4903 20.8551 14.1167 20.3347 14.0686C19.1679 13.96 18.4214 13.7024 17.9367 13.1552C17.4148 13.7179 16.4061 14.0862 15.8617 14.0862H13.9592V7.50172C13.9592 6.59617 13.2351 5.86207 12.3419 5.86207H6.76532Z" stroke="#D1DADD" stroke-width="1.5" stroke-linecap="round" stroke-linejoin="round"/>
<path d="M10.2005 18.9483H2.61735C1.72411 18.9483 1 18.2142 1 17.3086V7.50172C1 6.59616 1.72411 5.86206 2.61735 5.86206H12.3418C13.2351 5.86206 13.9592 6.59616 13.9592 7.50172V13.9569C13.9592 15.5862 13.9592 17.8621 16.5102 19C14.1633 19 12.8837 18.8221 12.1735 18.0172" stroke="#D1DADD" stroke-width="1.5" stroke-linecap="round" stroke-linejoin="round"/>
<path fill-rule="evenodd" clip-rule="evenodd" d="M5.69386 12.0172C6.11653 12.0172 6.45917 11.6699 6.45917 11.2414C6.45917 10.8129 6.11653 10.4655 5.69386 10.4655C5.2712 10.4655 4.92856 10.8129 4.92856 11.2414C4.92856 11.6699 5.2712 12.0172 5.69386 12.0172Z" fill="#D1DADD"/>
<path fill-rule="evenodd" clip-rule="evenodd" d="M9.26531 12.0172C9.68797 12.0172 10.0306 11.6699 10.0306 11.2414C10.0306 10.8129 9.68797 10.4655 9.26531 10.4655C8.84264 10.4655 8.5 10.8129 8.5 11.2414C8.5 11.6699 8.84264 12.0172 9.26531 12.0172Z" fill="#D1DADD"/>
<path d="M5.79593 14.2069C5.79593 16.5014 9.19542 16.5045 9.19746 14.21" stroke="#D1DADD" stroke-width="1.5" stroke-linecap="round" stroke-linejoin="round"/>
<path d="M18.8061 18.9483H18.8261" stroke="#D1DADD" stroke-width="1.5" stroke-linecap="round" stroke-linejoin="round"/>
</svg>
