<svg width="17" height="17" viewBox="0 0 17 17" fill="none" xmlns="http://www.w3.org/2000/svg">
<path d="M6.78917 9.12728C6.78917 8.97267 6.66088 8.84741 6.50258 8.84741H5.5025C5.34438 8.84741 5.21606 8.97267 5.21606 9.12728V10.1047C5.21606 10.2595 5.34438 10.3849 5.5025 10.3849H6.50258C6.66088 10.3849 6.78917 10.2595 6.78917 10.1047V9.12728Z" fill="#242424"/>
<path d="M9.28853 9.12728C9.28853 8.97267 9.16021 8.84741 9.00222 8.84741H8.00201C7.84389 8.84741 7.71558 8.97267 7.71558 9.12728V10.1047C7.71558 10.2595 7.84389 10.3849 8.00201 10.3849H9.00222C9.16021 10.3849 9.28853 10.2595 9.28853 10.1047V9.12728Z" fill="#242424"/>
<path d="M11.7879 9.12728C11.7879 8.97267 11.6596 8.84741 11.5015 8.84741H10.5014C10.3431 8.84741 10.2148 8.97267 10.2148 9.12728V10.1047C10.2148 10.2595 10.3431 10.3849 10.5014 10.3849H11.5015C11.6596 10.3849 11.7879 10.2595 11.7879 10.1047V9.12728Z" fill="#242424"/>
<path d="M6.78917 11.5705C6.78917 11.4157 6.66088 11.2905 6.50258 11.2905H5.5025C5.34438 11.2905 5.21606 11.4157 5.21606 11.5705V12.5478C5.21606 12.7025 5.34438 12.8278 5.5025 12.8278H6.50258C6.66088 12.8278 6.78917 12.7025 6.78917 12.5478V11.5705Z" fill="#242424"/>
<path d="M9.28853 11.5705C9.28853 11.4157 9.16021 11.2905 9.00222 11.2905H8.00201C7.84389 11.2905 7.71558 11.4157 7.71558 11.5705V12.5478C7.71558 12.7025 7.84389 12.8278 8.00201 12.8278H9.00222C9.16021 12.8278 9.28853 12.7025 9.28853 12.5478V11.5705Z" fill="#242424"/>
<path d="M11.7879 11.5705C11.7879 11.4157 11.6596 11.2905 11.5016 11.2905H10.5014C10.3431 11.2905 10.2148 11.4157 10.2148 11.5705V12.5478C10.2148 12.7025 10.3431 12.8278 10.5014 12.8278H11.5016C11.6596 12.8278 11.7879 12.7025 11.7879 12.5478V11.5705Z" fill="#242424"/>
<path fill-rule="evenodd" clip-rule="evenodd" d="M13.5762 5.18536V3.69237C14.1795 3.71015 14.6752 4.19809 14.6752 4.79784V13.5475C14.6752 14.1575 14.1676 14.6603 13.5434 14.6603H3.4606C2.83551 14.6603 2.32886 14.1585 2.32886 13.5475V4.79784C2.32886 4.19809 2.82457 3.71015 3.42782 3.69237V5.18536C3.42782 5.86018 3.98783 6.40398 4.67805 6.40398H5.46692C6.15711 6.40398 6.72454 5.86018 6.72454 5.18536V3.68701H10.2795V5.18536C10.2795 5.86018 10.8469 6.40398 11.5372 6.40398H12.3259C13.0162 6.40398 13.5762 5.86018 13.5762 5.18536ZM12.7206 13.4809C12.9909 13.4809 13.2099 13.2667 13.2099 13.0026L13.2099 8.48311C13.2099 8.21895 12.9908 8.00472 12.7206 8.00472H4.26185C3.99159 8.00472 3.77258 8.21895 3.77258 8.48311V13.0026C3.77258 13.2667 3.99161 13.4809 4.26185 13.4809H12.7206Z" fill="#242424"/>
<path d="M4.67526 5.60358H5.45541C5.6922 5.60358 5.8842 5.41618 5.8842 5.18471V2.73714C5.8842 2.50564 5.6922 2.31812 5.45541 2.31812H4.67526C4.43843 2.31812 4.24646 2.50564 4.24646 2.73714V5.18471C4.24646 5.41618 4.43843 5.60358 4.67526 5.60358Z" fill="#242424"/>
<path d="M11.5272 5.60358H12.3073C12.544 5.60358 12.7359 5.41618 12.7359 5.18471V2.73714C12.736 2.50564 12.544 2.31812 12.3073 2.31812H11.5272C11.2904 2.31812 11.0984 2.50564 11.0984 2.73714V5.18471C11.0984 5.41618 11.2904 5.60358 11.5272 5.60358Z" fill="#242424"/>
</svg>
