<svg width="36" height="36" viewBox="0 0 36 36" fill="none" xmlns="http://www.w3.org/2000/svg">
<path d="M9.5625 0C8.39749 0 7.45312 0.944367 7.45312 2.10938V6.39844C7.45312 7.5633 8.39749 8.50781 9.5625 8.50781C10.7275 8.50781 11.6719 7.5633 11.6719 6.39844V2.10938C11.6719 0.944367 10.7275 0 9.5625 0Z" fill="#4FC2E7"/>
<path d="M26.4375 0C25.2725 0 24.3281 0.944367 24.3281 2.10938V6.39844C24.3281 7.5633 25.2725 8.50781 26.4375 8.50781C27.6025 8.50781 28.5469 7.5633 28.5469 6.39844V2.10938C28.5469 0.944367 27.6025 0 26.4375 0Z" fill="#4FC2E7"/>
<path d="M30.6562 4.28906V6.39844C30.6562 8.72515 28.7642 10.6172 26.4375 10.6172C24.1108 10.6172 22.2188 8.72515 22.2188 6.39844V4.28906H13.7812V6.39844C13.7812 8.72515 11.8892 10.6172 9.5625 10.6172C7.23579 10.6172 5.34375 8.72515 5.34375 6.39844V4.28906C3.59902 4.28906 2.17969 5.70839 2.17969 7.45312V12.7266C13.3233 12.7266 22.7228 12.7266 33.8203 12.7266V7.45312C33.8203 5.70839 32.401 4.28906 30.6562 4.28906Z" fill="#4FC2E7"/>
<path fill-rule="evenodd" clip-rule="evenodd" d="M2.17969 14.8359V32.8359C2.17969 34.5807 3.59902 36 5.34375 36H30.6562C32.401 36 33.8203 34.5807 33.8203 32.8359V14.8359H2.17969ZM16.4531 20.3906C17.0356 20.3906 17.5078 20.8628 17.5078 21.4453V25.6641H20.6172C21.1997 25.6641 21.6719 26.1363 21.6719 26.7188C21.6719 27.3012 21.1997 27.7734 20.6172 27.7734H16.6816C15.9729 27.7734 15.3984 27.1989 15.3984 26.4902V21.4453C15.3984 20.8628 15.8706 20.3906 16.4531 20.3906Z" fill="#4FC2E7"/>
</svg>
