<svg width="23" height="22" viewBox="0 0 23 22" fill="none" xmlns="http://www.w3.org/2000/svg">
<path fill-rule="evenodd" clip-rule="evenodd" d="M7.3418 6.44825V2.9036C7.3418 1.90748 8.13832 1.09998 9.12088 1.09998H19.8178C20.8004 1.09998 21.5969 1.90748 21.5969 2.9036V10.0043C21.5969 11.3482 21.5969 13.0926 22.7805 14.4086C23.1678 14.8394 22.8406 15.5284 22.2681 15.4755C20.9846 15.356 20.1635 15.0726 19.6304 14.4707C19.0562 15.0897 17.9467 15.4948 17.3479 15.4948H15.2551V8.25187C15.2551 7.25576 14.4585 6.44825 13.476 6.44825H7.3418Z" fill="url(#paint0_linear)"/>
<path d="M11.1206 20.8431H2.77908C1.79652 20.8431 1 20.0356 1 19.0394V8.25186C1 7.25575 1.79652 6.44824 2.77908 6.44824H13.476C14.4586 6.44824 15.2551 7.25575 15.2551 8.25186V15.3526C15.2551 17.1448 15.2551 19.6482 18.0612 20.9C15.4796 20.9 14.072 20.7042 13.2908 19.8189" stroke="url(#paint1_linear)" stroke-width="1.5" stroke-linecap="round" stroke-linejoin="round"/>
<path fill-rule="evenodd" clip-rule="evenodd" d="M6.16325 13.2189C6.62818 13.2189 7.00508 12.8368 7.00508 12.3655C7.00508 11.8941 6.62818 11.512 6.16325 11.512C5.69831 11.512 5.32141 11.8941 5.32141 12.3655C5.32141 12.8368 5.69831 13.2189 6.16325 13.2189Z" fill="white"/>
<path fill-rule="evenodd" clip-rule="evenodd" d="M10.0918 13.2189C10.5568 13.2189 10.9337 12.8368 10.9337 12.3655C10.9337 11.8941 10.5568 11.512 10.0918 11.512C9.6269 11.512 9.25 11.8941 9.25 12.3655C9.25 12.8368 9.6269 13.2189 10.0918 13.2189Z" fill="white"/>
<path fill-rule="evenodd" clip-rule="evenodd" d="M5.94995 15.4C5.94995 18.3307 10.3473 18.3346 10.35 15.4039L5.94995 15.4Z" fill="white"/>
<path d="M20.5868 20.8431H20.6088" stroke="white" stroke-width="1.5" stroke-linecap="round" stroke-linejoin="round"/>
<defs>
<linearGradient id="paint0_linear" x1="15.1453" y1="1.09998" x2="15.1453" y2="15.4948" gradientUnits="userSpaceOnUse">
<stop stop-color="#F7C300"/>
<stop offset="1" stop-color="#FE1F00"/>
</linearGradient>
<linearGradient id="paint1_linear" x1="9.53061" y1="6.44824" x2="9.53061" y2="20.9" gradientUnits="userSpaceOnUse">
<stop stop-color="#F7C300"/>
<stop offset="1" stop-color="#FE1F00"/>
</linearGradient>
</defs>
</svg>
