<svg width="92" height="92" viewBox="0 0 92 92" fill="none" xmlns="http://www.w3.org/2000/svg">
<path d="M46 91.4545C71.1039 91.4545 91.4546 71.1038 91.4546 46C91.4546 20.8961 71.1039 0.545441 46 0.545441C20.8962 0.545441 0.545471 20.8961 0.545471 46C0.545471 71.1038 20.8962 91.4545 46 91.4545Z" fill="#333F6B"/>
<path fill-rule="evenodd" clip-rule="evenodd" d="M76.2824 79.8988C85.5936 71.5752 91.4546 59.4721 91.4546 46C91.4546 20.8961 71.1039 0.545441 46 0.545441C20.8962 0.545441 0.545471 20.8961 0.545471 46C0.545471 59.4721 6.40642 71.5753 15.7176 79.8989L21.0544 60.0653C22.3419 56.4698 25.8826 54.1818 30.067 54.1818H38.4359C43.2641 56.4698 48.736 56.4698 53.2423 54.1818H61.933C66.1175 54.1818 69.6581 56.4698 70.9457 60.0653L76.2824 79.8988ZM45.5455 24.1818C54.0238 24.1818 60.5455 30.7036 60.5455 39.1819C60.5455 47.334 54.0238 54.1819 45.5455 54.1819C37.3933 54.1819 30.5455 47.334 30.5455 39.1819C30.5455 30.7036 37.3933 24.1818 45.5455 24.1818Z" fill="#D1DADD"/>
</svg>
