<svg width="23" height="21" viewBox="0 0 23 21" fill="none" xmlns="http://www.w3.org/2000/svg">
<path fill-rule="evenodd" clip-rule="evenodd" d="M7.34186 5.44828V1.90363C7.34186 0.907514 8.13838 0.100006 9.12094 0.100006H19.8179C20.8004 0.100006 21.597 0.907514 21.597 1.90363V9.00432C21.597 10.3482 21.597 12.0927 22.7806 13.4087C23.1678 13.8394 22.8406 14.5284 22.2682 14.4755C20.9847 14.356 20.1636 14.0727 19.6304 13.4707C19.0563 14.0897 17.9468 14.4948 17.3479 14.4948H15.2551V7.2519C15.2551 6.25579 14.4586 5.44828 13.476 5.44828H7.34186Z" fill="#F5BA42"/>
<path d="M11.1206 19.8431H2.77908C1.79652 19.8431 1 19.0356 1 18.0395V7.2519C1 6.25579 1.79652 5.44828 2.77908 5.44828H13.476C14.4586 5.44828 15.2551 6.25579 15.2551 7.2519V14.3526C15.2551 16.1448 15.2551 18.6483 18.0612 19.9C15.4796 19.9 14.072 19.7043 13.2908 18.819" stroke="#F5BA42" stroke-width="1.5" stroke-linecap="round" stroke-linejoin="round"/>
<path fill-rule="evenodd" clip-rule="evenodd" d="M6.16325 12.219C6.62818 12.219 7.00508 11.8369 7.00508 11.3655C7.00508 10.8942 6.62818 10.5121 6.16325 10.5121C5.69831 10.5121 5.32141 10.8942 5.32141 11.3655C5.32141 11.8369 5.69831 12.219 6.16325 12.219Z" fill="white"/>
<path fill-rule="evenodd" clip-rule="evenodd" d="M10.0918 12.219C10.5568 12.219 10.9337 11.8369 10.9337 11.3655C10.9337 10.8942 10.5568 10.5121 10.0918 10.5121C9.6269 10.5121 9.25 10.8942 9.25 11.3655C9.25 11.8369 9.6269 12.219 10.0918 12.219Z" fill="white"/>
<path fill-rule="evenodd" clip-rule="evenodd" d="M5.95001 14.4C5.95001 17.3307 10.3474 17.3347 10.35 14.404L5.95001 14.4Z" fill="white"/>
<path d="M20.5867 19.8431H20.6087" stroke="white" stroke-width="1.5" stroke-linecap="round" stroke-linejoin="round"/>
</svg>
