<svg width="22" height="20" viewBox="0 0 22 20" fill="none" xmlns="http://www.w3.org/2000/svg">
<path fill-rule="evenodd" clip-rule="evenodd" d="M8.21925 8.29338C10.2276 8.29338 11.8556 6.6607 11.8556 4.64669C11.8556 2.63268 10.2276 1 8.21925 1C6.21094 1 4.58289 2.63268 4.58289 4.64669C4.58289 6.6607 6.21094 8.29338 8.21925 8.29338Z" stroke="url(#paint0_linear)" stroke-width="1.5" stroke-linecap="round"/>
<path fill-rule="evenodd" clip-rule="evenodd" d="M17.1497 9.6877C18.4787 9.6877 19.5561 8.60726 19.5561 7.27446C19.5561 5.94165 18.4787 4.86121 17.1497 4.86121C15.8207 4.86121 14.7433 5.94165 14.7433 7.27446C14.7433 8.60726 15.8207 9.6877 17.1497 9.6877Z" fill="#242424" stroke="#242424" stroke-width="1.5" stroke-linecap="round"/>
<path fill-rule="evenodd" clip-rule="evenodd" d="M18.5711 13.1553H14.3583C15.0248 14.0037 15.3864 15.0515 15.385 16.13V17.9818H21V15.5813C20.9997 14.2414 19.9123 13.1553 18.5711 13.1553V13.1553Z" stroke="url(#paint1_linear)" stroke-width="1.5" stroke-linecap="round"/>
<path fill-rule="evenodd" clip-rule="evenodd" d="M5.83102 11.2965H10.5535C11.8348 11.2964 13.0638 11.8068 13.9699 12.7153C14.876 13.6239 15.385 14.8563 15.385 16.1413V18H1V16.1413C1 13.4656 3.16292 11.2965 5.83102 11.2965Z" stroke="url(#paint2_linear)" stroke-width="1.5" stroke-linecap="round"/>
<defs>
<linearGradient id="paint0_linear" x1="8.21925" y1="1" x2="8.21925" y2="8.29338" gradientUnits="userSpaceOnUse">
<stop stop-color="#F7C300"/>
<stop offset="1" stop-color="#FE1F00"/>
</linearGradient>
<linearGradient id="paint1_linear" x1="17.6791" y1="13.1553" x2="17.6791" y2="17.9818" gradientUnits="userSpaceOnUse">
<stop stop-color="#F7C300"/>
<stop offset="1" stop-color="#FE1F00"/>
</linearGradient>
<linearGradient id="paint2_linear" x1="8.19251" y1="11.2965" x2="8.19251" y2="18" gradientUnits="userSpaceOnUse">
<stop stop-color="#F7C300"/>
<stop offset="1" stop-color="#FE1F00"/>
</linearGradient>
</defs>
</svg>
