<svg width="36" height="36" viewBox="0 0 36 36" fill="none" xmlns="http://www.w3.org/2000/svg">
<path d="M33.0345 23.6823C33.6656 22.2353 33.7967 20.6193 33.4073 19.0895C33.018 17.5597 32.1302 16.2031 30.8842 15.2338C29.6382 14.2646 28.1049 13.7379 26.5263 13.7368H24.7358C24.3057 12.0731 23.504 10.5286 22.391 9.21931C21.278 7.91003 19.8827 6.8701 18.3099 6.17771C16.7372 5.48531 15.0279 5.15846 13.3107 5.22173C11.5934 5.285 9.91288 5.73674 8.39535 6.543C6.87782 7.34926 5.56282 8.48904 4.54919 9.87667C3.53557 11.2643 2.84971 12.8637 2.54318 14.5545C2.23664 16.2454 2.31741 17.9837 2.7794 19.6388C3.2414 21.294 4.0726 22.8229 5.21052 24.1105" stroke="#4FC2E7" stroke-width="3.5" stroke-linecap="round" stroke-linejoin="round"/>
<path d="M23.6842 23.6842L18 18L12.3158 23.6842" stroke="#4FC2E7" stroke-width="3.5" stroke-linejoin="round"/>
<path d="M18 18V30.7895" stroke="#F2F5F6" stroke-width="3.5" stroke-linejoin="round"/>
<path d="M18 24.6316L18 31.2632" stroke="#4FC2E7" stroke-width="3.5" stroke-linejoin="round"/>
<path d="M23.6842 23.6842L18 18L12.3158 23.6842" fill="#4FC2E7"/>
<path d="M23.6842 23.6842L18 18L12.3158 23.6842H23.6842Z" stroke="#4FC2E7" stroke-width="3.5" stroke-linejoin="round"/>
</svg>
