<svg width="36" height="36" viewBox="0 0 36 36" fill="none" xmlns="http://www.w3.org/2000/svg">
<g clip-path="url(#clip0)">
<path d="M30.0595 10.3808C30.0595 10.3808 30.0595 10.3808 30.0595 10.3808H28.9578H18.2775C17.5494 10.3808 16.8788 9.98509 16.5268 9.34773L14.205 5.14391L13.8906 4.57544L13.7855 4.38447L13.7145 4.25407C13.7144 4.25388 13.7142 4.25376 13.714 4.25376C13.7137 4.25376 13.7135 4.25364 13.7134 4.25345L13.5983 4.04226L13.5627 3.97752C13.2114 3.33792 12.5396 2.94046 11.8098 2.94046H2C0.895431 2.94046 0 3.83589 0 4.94046V24.7525C0 25.8571 0.895431 26.7525 2 26.7525H18.972C19.0096 26.7525 19.0383 26.7195 19.0349 26.682C18.9982 26.3397 18.9798 25.9923 18.9798 25.6508C18.9798 25.2806 19.0011 24.9126 19.0429 24.549C19.3147 22.1943 20.4517 20.007 22.2533 18.4257L22.2629 18.4169C22.2827 18.4 22.3019 18.3831 22.3194 18.3677C23.1105 17.686 24.0014 17.1411 24.9665 16.7474C26.1196 16.2773 27.3396 16.0386 28.5919 16.0386C28.7146 16.0386 28.8364 16.0408 28.9576 16.0459C29.3293 16.0592 29.6973 16.0944 30.0594 16.1495C30.6197 16.2344 31.1611 15.8241 31.1611 15.2574V10.9317C31.1611 10.6275 30.9145 10.3809 30.6103 10.3809H30.0595C30.0595 10.3809 30.0595 10.3808 30.0595 10.3808Z" fill="#4FC2E7"/>
<path d="M16.2307 4.25378L16.8388 5.35551L17.4469 6.45724H17.4477L18.3973 8.17736H28.9578H30.0595H31.1612V4.25378H16.2307Z" fill="#4FC2E7"/>
<g clip-path="url(#clip1)">
<path d="M28.42 30.2538C26.2686 30.1334 24.893 28.0955 25.4195 26.1306L25.5408 25.6778L26.8991 26.0418C27.0802 26.0903 27.2723 26.0253 27.3908 25.8727C27.5093 25.72 27.5241 25.5202 27.4222 25.357L25.4336 21.9126C25.3101 21.6854 25.0203 21.6077 24.7997 21.7427L21.3553 23.7314C21.1855 23.8217 21.0983 24.0022 21.1247 24.1936C21.151 24.3851 21.2849 24.5374 21.466 24.586L22.8242 24.9499L22.7029 25.4027C21.7664 28.898 24.093 32.53 27.805 33.0199C29.255 33.2153 30.6475 32.8538 31.8097 32.0986C32.0152 31.9654 32.0709 31.6852 31.9483 31.4728L31.0269 29.8769C30.8949 29.6484 30.5975 29.5668 30.3786 29.7139C29.8146 30.0946 29.1383 30.2968 28.42 30.2538Z" fill="#4FC2E7"/>
<path d="M29.195 17.9802C27.745 17.7848 26.3515 18.1462 25.1902 18.9016C24.9847 19.0348 24.929 19.3149 25.0517 19.5273L25.9731 21.1233C26.105 21.3517 26.4024 21.4334 26.6214 21.2863C27.186 20.9067 27.8626 20.7037 28.58 20.7464C30.7314 20.8668 32.107 22.9047 31.5805 24.8696L31.4592 25.3224L30.1009 24.9584C29.9198 24.9099 29.7277 24.9749 29.6092 25.1275C29.4906 25.2802 29.4759 25.48 29.5777 25.6432L31.5664 29.0876C31.6899 29.3148 31.9797 29.3925 32.2003 29.2575L35.6447 27.2688C35.8145 27.1784 35.9017 26.998 35.8753 26.8065C35.849 26.6151 35.7151 26.4627 35.534 26.4142L34.1757 26.0503L34.297 25.5975C35.2336 22.1022 32.907 18.4702 29.195 17.9802Z" fill="#4FC2E7"/>
</g>
</g>
<defs>
<clipPath id="clip0">
<rect width="36" height="36" fill="white"/>
</clipPath>
<clipPath id="clip1">
<rect x="19.3144" y="30.8033" width="15" height="15" transform="rotate(-75 19.3144 30.8033)" fill="white"/>
</clipPath>
</defs>
</svg>
