<svg width="16" height="16" viewBox="0 0 16 16" fill="none" xmlns="http://www.w3.org/2000/svg">
<g clip-path="url(#clip0)">
<path d="M7.98621 6.25996V15.8535C7.98621 15.932 8.04171 15.9985 8.10696 15.9985H15.8645C15.9297 15.9985 15.9842 15.932 15.9842 15.8535V9.98921V6.25996C15.9857 6.22408 15.9742 6.18887 15.952 6.16071C15.952 6.16071 15.9497 6.15921 15.9487 6.16046C15.939 6.14697 15.9263 6.13596 15.9116 6.12832C15.8969 6.12067 15.8805 6.11661 15.864 6.11646H8.10646C8.04171 6.11646 7.98621 6.18321 7.98621 6.26221" fill="#333F6B"/>
<path d="M0 8.43297V15.8872C0 15.9485 0.052 16 0.113 16H7.34175C7.37137 15.9995 7.39963 15.9874 7.42044 15.9663C7.44124 15.9453 7.45294 15.9168 7.453 15.8872V11.3317V8.43297C7.45347 8.41874 7.45098 8.40458 7.44569 8.39136C7.44039 8.37815 7.43241 8.36618 7.42225 8.35622L7.42025 8.35397L7.416 8.35097C7.40643 8.34088 7.39486 8.33289 7.38204 8.32751C7.36921 8.32213 7.35541 8.31947 7.3415 8.31972H0.11275C0.0829621 8.32036 0.0545804 8.33251 0.033559 8.35363C0.0125375 8.37474 0.00051013 8.40318 0 8.43297" fill="#333F6B"/>
<path d="M1.03626 10.6206H2.01676C2.02501 10.6206 2.03226 10.6118 2.03226 10.6031V9.89756V9.49281C2.03236 9.49072 2.03203 9.48862 2.0313 9.48665C2.03057 9.48468 2.02944 9.48288 2.02799 9.48136C2.02654 9.47984 2.0248 9.47864 2.02287 9.47781C2.02094 9.47698 2.01886 9.47656 2.01676 9.47656H1.03626C1.03416 9.47655 1.03208 9.47697 1.03015 9.47778C1.02821 9.4786 1.02646 9.4798 1.02501 9.48131V9.48231C1.02301 9.48656 1.02051 9.48906 1.02051 9.48906V10.6031C1.02051 10.6118 1.02751 10.6206 1.03626 10.6206Z" fill="white"/>
<path d="M1.03626 12.4885H2.01676C2.02501 12.4885 2.03226 12.48 2.03226 12.4712V11.7657V11.3612C2.03232 11.3591 2.03197 11.357 2.03123 11.3551C2.03048 11.3531 2.02936 11.3514 2.02791 11.3498C2.02647 11.3483 2.02474 11.3471 2.02283 11.3463C2.02091 11.3455 2.01885 11.345 2.01676 11.345H1.03626C1.03414 11.345 1.03204 11.3454 1.0301 11.3463C1.02816 11.3471 1.02642 11.3484 1.02501 11.35V11.3512C1.02301 11.355 1.02051 11.3577 1.02051 11.3577V12.472C1.02051 12.48 1.02751 12.4885 1.03626 12.4885Z" fill="white"/>
<path d="M2.67381 10.6206H3.65506C3.66281 10.6206 3.67006 10.6118 3.67006 10.6031V9.89756V9.49281C3.67006 9.48306 3.66281 9.47656 3.65506 9.47656H2.67381C2.66967 9.47666 2.66573 9.47836 2.66281 9.48131V9.48231C2.66081 9.48656 2.65881 9.48906 2.65881 9.48906V10.6031C2.65881 10.6118 2.66506 10.6206 2.67381 10.6206Z" fill="white"/>
<path d="M2.67381 12.4885H3.65506C3.66281 12.4885 3.67006 12.48 3.67006 12.4712V11.7657V11.3612C3.67006 11.3517 3.66281 11.345 3.65506 11.345H2.67381C2.67173 11.345 2.66968 11.3455 2.66779 11.3463C2.66589 11.3472 2.6642 11.3484 2.66281 11.35V11.3512C2.66081 11.355 2.65881 11.3577 2.65881 11.3577V12.472C2.65881 12.48 2.66506 12.4885 2.67381 12.4885Z" fill="white"/>
<path d="M12.9318 8.67452H13.9131C13.9208 8.67452 13.9286 8.66577 13.9286 8.65702V7.95177V7.54727C13.9286 7.53752 13.9211 7.53027 13.9131 7.53027H12.9318C12.9276 7.53027 12.9236 7.53227 12.9236 7.53227L12.9233 7.53677C12.9211 7.54027 12.9191 7.54302 12.9191 7.54752V8.65727C12.9191 8.66577 12.9251 8.67452 12.9341 8.67452" fill="white"/>
<path d="M12.9318 10.5424H13.9131C13.9208 10.5424 13.9286 10.5337 13.9286 10.5249V9.81944V9.41469C13.9286 9.41259 13.9283 9.4105 13.9275 9.40853C13.9268 9.40656 13.9257 9.40476 13.9242 9.40323C13.9228 9.4017 13.9211 9.40047 13.9192 9.3996C13.9172 9.39874 13.9152 9.39826 13.9131 9.39819H12.9318C12.9276 9.39819 12.9236 9.40019 12.9236 9.40019L12.9233 9.40444C12.9211 9.40869 12.9191 9.41094 12.9191 9.41494V10.5252C12.9191 10.5337 12.9251 10.5424 12.9341 10.5424" fill="white"/>
<path d="M14.5701 8.67452H15.5511C15.5586 8.67452 15.5666 8.66577 15.5666 8.65702V7.95177V7.54727C15.5666 7.53752 15.5593 7.53027 15.5511 7.53027H14.5701C14.5701 7.53027 14.5616 7.53227 14.5588 7.53552V7.53652C14.5588 7.53652 14.5548 7.54277 14.5548 7.54727V8.65702C14.5553 8.66577 14.5616 8.67452 14.5701 8.67452Z" fill="white"/>
<path d="M14.5701 10.5424H15.5511C15.5586 10.5424 15.5666 10.5337 15.5666 10.5249V9.81944V9.41469C15.5666 9.40494 15.5593 9.39819 15.5511 9.39819H14.5701C14.5701 9.39819 14.5616 9.40019 14.5588 9.40344V9.40444C14.5588 9.40444 14.5548 9.41094 14.5548 9.41494V10.5252C14.5553 10.5337 14.5616 10.5424 14.5701 10.5424Z" fill="white"/>
<path d="M12.9317 12.1528H13.913C13.9207 12.1528 13.9285 12.1443 13.9285 12.1355V11.4303V11.0255C13.9286 11.0234 13.9282 11.0214 13.9275 11.0194C13.9267 11.0175 13.9256 11.0157 13.9242 11.0142C13.9227 11.0126 13.921 11.0114 13.9191 11.0106C13.9171 11.0098 13.9151 11.0093 13.913 11.0093H12.9317C12.9297 11.0093 12.9276 11.0098 12.9258 11.0107C12.9239 11.0116 12.9223 11.0129 12.921 11.0145V11.0155C12.9187 11.0195 12.9167 11.0223 12.9167 11.0258V12.136C12.9167 12.1443 12.9227 12.1528 12.9317 12.1528Z" fill="white"/>
<path d="M12.9317 14.0201H13.913C13.9207 14.0201 13.9285 14.0113 13.9285 14.0031V13.2976V12.8928C13.9286 12.8908 13.9282 12.8887 13.9275 12.8867C13.9267 12.8848 13.9256 12.883 13.9241 12.8815C13.9227 12.8801 13.921 12.8789 13.919 12.8781C13.9171 12.8772 13.9151 12.8768 13.913 12.8768H12.9317C12.9297 12.8769 12.9277 12.8773 12.9259 12.8781C12.924 12.8789 12.9224 12.8801 12.921 12.8816V12.8826C12.9187 12.8868 12.9167 12.8891 12.9167 12.8933V14.0033C12.9167 14.0113 12.9227 14.0201 12.9317 14.0201Z" fill="white"/>
<path d="M14.5701 12.1528H15.5511C15.5586 12.1528 15.5666 12.1443 15.5666 12.1355V11.4303V11.0255C15.5667 11.0234 15.5663 11.0213 15.5656 11.0194C15.5649 11.0174 15.5637 11.0156 15.5623 11.0141C15.5608 11.0126 15.5591 11.0114 15.5572 11.0105C15.5552 11.0097 15.5532 11.0093 15.5511 11.0093H14.5701C14.5701 11.0093 14.5616 11.0113 14.5588 11.0145V11.0155C14.5568 11.0195 14.5548 11.0223 14.5548 11.0258V12.136C14.5553 12.1443 14.5616 12.1528 14.5701 12.1528Z" fill="white"/>
<path d="M14.5701 14.0201H15.5511C15.5586 14.0201 15.5666 14.0113 15.5666 14.0031V13.2976V12.8928C15.5666 12.8908 15.5663 12.8887 15.5655 12.8867C15.5648 12.8848 15.5636 12.883 15.5622 12.8815C15.5608 12.8801 15.559 12.8789 15.5571 12.8781C15.5552 12.8772 15.5531 12.8768 15.5511 12.8768H14.5701C14.5701 12.8768 14.5616 12.8788 14.5588 12.8816V12.8826C14.5568 12.8868 14.5548 12.8891 14.5548 12.8933V14.0033C14.5553 14.0113 14.5616 14.0201 14.5701 14.0201Z" fill="white"/>
<path d="M4.09521 2.23503V15.785C4.09521 15.8978 4.15846 15.99 4.23321 15.99H13.143C13.218 15.99 13.2812 15.8978 13.2812 15.785V7.50253V2.23503C13.2832 2.18564 13.2703 2.13678 13.2442 2.09478L13.2402 2.09079C13.2402 2.08729 13.238 2.08679 13.2352 2.08504C13.226 2.06859 13.2126 2.05484 13.1964 2.04515C13.1803 2.03545 13.1618 2.03016 13.143 2.02979H4.23346C4.15846 2.02979 4.09521 2.12328 4.09521 2.23503Z" fill="#4FC2E7"/>
<path d="M7.45146 15.9972H9.97796C9.99721 15.9972 10.0155 15.9842 10.0155 15.968V14.815V14.1535C10.0155 14.138 9.99721 14.1265 9.97796 14.1265H7.45146C7.44214 14.1264 7.433 14.1291 7.42521 14.1342L7.42471 14.1352H7.42371C7.41871 14.141 7.41321 14.147 7.41321 14.1535V15.9682C7.41321 15.9845 7.43171 15.9972 7.45146 15.9972Z" fill="white"/>
<path d="M7.7675 15.0974H8.20625C8.20625 15.0974 8.2125 15.0932 8.2125 15.0897V14.7742V14.5932C8.2125 14.5879 8.20925 14.5857 8.20925 14.5857H7.767L7.76175 14.5877V14.5887L7.76025 14.5917V15.0902C7.76075 15.0934 7.76375 15.0974 7.7675 15.0974Z" fill="#333F6B"/>
<path d="M4.69378 9.36827H12.788C12.8525 9.36827 12.9168 9.35652 12.9168 9.34627V8.46452V7.95777C12.9168 7.94627 12.8525 7.93652 12.788 7.93652H4.69353C4.66153 7.93652 4.62303 7.93952 4.60353 7.94327V7.94427C4.58803 7.94952 4.57153 7.95302 4.57153 7.95777V9.34627C4.57153 9.35627 4.62328 9.36802 4.69378 9.36802" fill="#333F6B"/>
<path d="M4.68828 11.7053H12.447C12.5095 11.7053 12.5708 11.6933 12.5708 11.6831V10.8016V10.2946C12.5708 10.2833 12.5095 10.2736 12.447 10.2736H4.68903C4.65778 10.2736 4.62103 10.2738 4.60228 10.2801V10.2821C4.58653 10.2863 4.57153 10.2898 4.57153 10.2946V11.6843C4.57153 11.6943 4.62078 11.7063 4.68878 11.7063" fill="#333F6B"/>
<path d="M6.63926 9.37231H7.86726C7.87701 9.37231 7.88676 9.36031 7.88676 9.34956V8.46831V7.96131C7.88676 7.94981 7.87701 7.94006 7.86726 7.94006H6.63851C6.6358 7.94016 6.63314 7.94081 6.63069 7.94197C6.62824 7.94313 6.62606 7.94478 6.62426 7.94681V7.94781C6.62426 7.95281 6.61926 7.95656 6.61926 7.96131V9.34981C6.61926 9.36031 6.62751 9.37231 6.63826 9.37231" fill="#333F6B"/>
<path d="M6.63926 11.7095H7.86726C7.87701 11.7095 7.88676 11.6975 7.88676 11.6867V10.8057V10.2987C7.88676 10.2872 7.87701 10.2775 7.86726 10.2775H6.63851C6.6358 10.2776 6.63314 10.2782 6.63069 10.2794C6.62824 10.2805 6.62606 10.2822 6.62426 10.2842V10.2862C6.62426 10.2905 6.61926 10.294 6.61926 10.299V11.6882C6.61926 11.6982 6.62751 11.7102 6.63826 11.7102" fill="#333F6B"/>
<path d="M11.5425 9.37231H12.7713C12.7813 9.37231 12.791 9.36031 12.791 9.34956V8.46831V7.96131C12.791 7.94981 12.7813 7.94006 12.7713 7.94006H11.5445C11.5419 7.94019 11.5393 7.94085 11.5369 7.94201C11.5346 7.94317 11.5325 7.94481 11.5308 7.94681V7.94781C11.5305 7.95281 11.5255 7.95656 11.5255 7.96131V9.34981C11.5255 9.36031 11.5338 9.37231 11.5445 9.37231" fill="#333F6B"/>
<path d="M11.5425 11.7095H12.7713C12.7813 11.7095 12.791 11.6975 12.791 11.6867V10.8057V10.2987C12.791 10.2872 12.7813 10.2775 12.7713 10.2775H11.5445C11.5419 10.2776 11.5393 10.2783 11.5369 10.2794C11.5346 10.2806 11.5325 10.2822 11.5308 10.2842V10.2862C11.5308 10.2862 11.5255 10.294 11.5255 10.299V11.6882C11.5255 11.6982 11.5338 11.7102 11.5445 11.7102" fill="#333F6B"/>
<path d="M9.50997 9.37231H10.7372C10.747 9.37231 10.7562 9.36031 10.7562 9.34956V8.46831V7.96131C10.7562 7.94981 10.747 7.94006 10.7372 7.94006H9.51097C9.5053 7.94034 9.49994 7.94275 9.49597 7.94681V7.94781C9.49397 7.95281 9.49072 7.95656 9.49072 7.96131V9.34981C9.49072 9.36031 9.49972 9.37231 9.51097 9.37231" fill="#333F6B"/>
<path d="M9.50997 11.7095H10.7372C10.747 11.7095 10.7562 11.6975 10.7562 11.6867V10.8057V10.2987C10.7562 10.2872 10.747 10.2775 10.7372 10.2775H9.51097C9.5053 10.2777 9.49994 10.2802 9.49597 10.2842V10.2862C9.49597 10.2862 9.49072 10.294 9.49072 10.299V11.6882C9.49072 11.6982 9.49972 11.7102 9.51097 11.7102" fill="#333F6B"/>
<path d="M9.205 15.0974H9.64425C9.64425 15.0974 9.65075 15.0932 9.65075 15.0897V14.7742V14.5932C9.65075 14.5879 9.64725 14.5857 9.64725 14.5857H9.20475L9.2 14.5877V14.5887C9.199 14.5897 9.198 14.5917 9.198 14.5917V15.0902C9.1985 15.0934 9.20175 15.0974 9.205 15.0974Z" fill="#333F6B"/>
<path d="M6.66599 5.8153H10.7622C10.7947 5.8153 10.8255 5.80955 10.8255 5.80155V5.21205V4.8743C10.8255 4.86655 10.7947 4.8608 10.7622 4.8608H6.66624C6.65248 4.86039 6.63872 4.86156 6.62524 4.8643L6.62374 4.8648H6.62224C6.61249 4.86705 6.60474 4.87105 6.60474 4.87105V5.8018C6.60474 5.8093 6.63374 5.8153 6.66649 5.8153" fill="#DE374B"/>
<path d="M8.23621 4.89522V7.27547C8.23621 7.29397 8.24221 7.31147 8.25046 7.31147H9.17821C9.18596 7.31147 9.19271 7.29397 9.19271 7.27547V5.82047V4.89522C9.1932 4.88711 9.19157 4.87901 9.18796 4.87172V4.87122V4.86922C9.18371 4.86447 9.18096 4.86047 9.18096 4.86047H8.24996C8.24271 4.86047 8.23621 4.87622 8.23621 4.89522Z" fill="#DE374B"/>
<path d="M8.23621 3.39926V5.77901C8.23621 5.79751 8.24221 5.81501 8.25046 5.81501H9.17821C9.18596 5.81501 9.1927 5.79751 9.1927 5.77901V4.32451V3.39926C9.19313 3.39099 9.1915 3.38274 9.18795 3.37526V3.37351C9.18544 3.37056 9.18311 3.36748 9.18095 3.36426H8.24996C8.24271 3.36426 8.23621 3.37976 8.23621 3.39926Z" fill="#DE374B"/>
</g>
<defs>
<clipPath id="clip0">
<rect width="16" height="16" fill="white"/>
</clipPath>
</defs>
</svg>
