<svg width="30" height="30" viewBox="0 0 30 30" fill="none" xmlns="http://www.w3.org/2000/svg">
<path d="M14.9742 11.7375V29.7253C14.9742 29.8725 15.0782 29.9972 15.2006 29.9972H29.7459C29.8682 29.9972 29.9704 29.8725 29.9704 29.7253V18.7299V11.7375C29.9732 11.6702 29.9517 11.6042 29.91 11.5514C29.91 11.5514 29.9057 11.5486 29.9039 11.5509C29.8857 11.5257 29.8619 11.505 29.8343 11.4907C29.8067 11.4764 29.7761 11.4687 29.745 11.4684H15.1997C15.0782 11.4684 14.9742 11.5936 14.9742 11.7417" fill="#333F6B"/>
<path d="M0 15.8119V29.7886C0 29.9035 0.0975 30 0.211875 30H13.7658C13.8213 29.9992 13.8743 29.9765 13.9133 29.937C13.9523 29.8975 13.9743 29.8442 13.9744 29.7886V21.2471V15.8119C13.9753 15.7852 13.9706 15.7587 13.9607 15.7339C13.9507 15.7091 13.9358 15.6867 13.9167 15.668L13.913 15.6638L13.905 15.6582C13.8871 15.6392 13.8654 15.6243 13.8413 15.6142C13.8173 15.6041 13.7914 15.5991 13.7653 15.5996H0.211406C0.155554 15.6008 0.102338 15.6236 0.062923 15.6632C0.0235079 15.7027 0.000956493 15.7561 0 15.8119" fill="#333F6B"/>
<path d="M1.94298 19.9134H3.78142C3.79689 19.9134 3.81048 19.897 3.81048 19.8806V18.5578V17.7989C3.81067 17.795 3.81006 17.791 3.80869 17.7873C3.80731 17.7837 3.8052 17.7803 3.80248 17.7774C3.79977 17.7746 3.7965 17.7723 3.79288 17.7708C3.78926 17.7692 3.78536 17.7684 3.78142 17.7684H1.94298C1.93905 17.7684 1.93515 17.7692 1.93152 17.7707C1.9279 17.7723 1.92462 17.7745 1.92189 17.7773V17.7792C1.91814 17.7872 1.91345 17.7919 1.91345 17.7919V19.8806C1.91345 19.897 1.92658 19.9134 1.94298 19.9134Z" fill="white"/>
<path d="M1.94298 23.4159H3.78142C3.79689 23.4159 3.81048 23.4 3.81048 23.3836V22.0608V21.3023C3.81061 21.2984 3.80995 21.2945 3.80855 21.2908C3.80715 21.2872 3.80504 21.2838 3.80234 21.281C3.79963 21.2782 3.79639 21.2759 3.7928 21.2743C3.78921 21.2728 3.78534 21.2719 3.78142 21.2719H1.94298C1.939 21.2718 1.93507 21.2727 1.93143 21.2743C1.92779 21.2759 1.92454 21.2783 1.92189 21.2812V21.2836C1.91814 21.2906 1.91345 21.2958 1.91345 21.2958V23.385C1.91345 23.4 1.92658 23.4159 1.94298 23.4159Z" fill="white"/>
<path d="M5.01332 19.9134H6.85317C6.8677 19.9134 6.88129 19.897 6.88129 19.8806V18.5578V17.7989C6.88129 17.7806 6.8677 17.7684 6.85317 17.7684H5.01332C5.00555 17.7686 4.99816 17.7718 4.9927 17.7773V17.7792C4.98895 17.7872 4.9852 17.7919 4.9852 17.7919V19.8806C4.9852 19.897 4.99692 19.9134 5.01332 19.9134Z" fill="white"/>
<path d="M5.01332 23.4159H6.85317C6.8677 23.4159 6.88129 23.4 6.88129 23.3836V22.0608V21.3023C6.88129 21.2845 6.8677 21.2719 6.85317 21.2719H5.01332C5.00942 21.2719 5.00558 21.2728 5.00203 21.2744C4.99848 21.276 4.9953 21.2783 4.9927 21.2812V21.2836C4.98895 21.2906 4.9852 21.2958 4.9852 21.2958V23.385C4.9852 23.4 4.99692 23.4159 5.01332 23.4159Z" fill="white"/>
<path d="M24.2471 16.2647H26.0869C26.1015 16.2647 26.116 16.2483 26.116 16.2319V14.9095V14.1511C26.116 14.1328 26.1019 14.1192 26.0869 14.1192H24.2471C24.2391 14.1192 24.2316 14.123 24.2316 14.123L24.2311 14.1314C24.2269 14.138 24.2232 14.1431 24.2232 14.1515V16.2323C24.2232 16.2483 24.2344 16.2647 24.2513 16.2647" fill="white"/>
<path d="M24.2471 19.7672H26.0869C26.1015 19.7672 26.116 19.7508 26.116 19.7344V18.4115V17.6526C26.1161 17.6487 26.1155 17.6448 26.1141 17.6411C26.1127 17.6374 26.1106 17.634 26.1079 17.6312C26.1052 17.6283 26.1019 17.626 26.0983 17.6243C26.0947 17.6227 26.0909 17.6218 26.0869 17.6217H24.2471C24.2391 17.6217 24.2316 17.6255 24.2316 17.6255L24.2311 17.6334C24.2269 17.6414 24.2232 17.6456 24.2232 17.6531V19.7348C24.2232 19.7508 24.2344 19.7672 24.2513 19.7672" fill="white"/>
<path d="M27.3188 16.2647H29.1582C29.1722 16.2647 29.1872 16.2483 29.1872 16.2319V14.9095V14.1511C29.1872 14.1328 29.1736 14.1192 29.1582 14.1192H27.3188C27.3188 14.1192 27.3028 14.123 27.2977 14.129V14.1309C27.2977 14.1309 27.2902 14.1426 27.2902 14.1511V16.2319C27.2911 16.2483 27.3028 16.2647 27.3188 16.2647Z" fill="white"/>
<path d="M27.3188 19.7672H29.1582C29.1722 19.7672 29.1872 19.7508 29.1872 19.7344V18.4115V17.6526C29.1872 17.6344 29.1736 17.6217 29.1582 17.6217H27.3188C27.3188 17.6217 27.3028 17.6255 27.2977 17.6315V17.6334C27.2977 17.6334 27.2902 17.6456 27.2902 17.6531V19.7348C27.2911 19.7508 27.3028 19.7672 27.3188 19.7672Z" fill="white"/>
<path d="M24.247 22.7864H26.0869C26.1014 22.7864 26.1159 22.7705 26.1159 22.7541V21.4317V20.6728C26.1161 20.6689 26.1154 20.665 26.114 20.6613C26.1126 20.6577 26.1105 20.6543 26.1078 20.6515C26.1051 20.6486 26.1018 20.6464 26.0982 20.6448C26.0947 20.6432 26.0908 20.6424 26.0869 20.6423H24.247C24.2431 20.6424 24.2393 20.6432 24.2358 20.645C24.2323 20.6467 24.2293 20.6491 24.2269 20.6522V20.6541C24.2227 20.6616 24.2189 20.6667 24.2189 20.6733V22.755C24.2189 22.7705 24.2302 22.7864 24.247 22.7864Z" fill="white"/>
<path d="M24.247 26.2875H26.0869C26.1014 26.2875 26.1159 26.271 26.1159 26.2556V24.9328V24.1739C26.1161 24.17 26.1154 24.1661 26.114 24.1624C26.1126 24.1588 26.1105 24.1555 26.1078 24.1527C26.1051 24.1499 26.1018 24.1477 26.0982 24.1462C26.0946 24.1446 26.0908 24.1439 26.0869 24.1439H24.247C24.2432 24.1439 24.2395 24.1447 24.236 24.1463C24.2326 24.1478 24.2295 24.15 24.2269 24.1528V24.1546C24.2227 24.1626 24.2189 24.1668 24.2189 24.1748V26.256C24.2189 26.271 24.2302 26.2875 24.247 26.2875Z" fill="white"/>
<path d="M27.3188 22.7864H29.1582C29.1722 22.7864 29.1872 22.7705 29.1872 22.7541V21.4317V20.6728C29.1874 20.6689 29.1868 20.6649 29.1854 20.6612C29.1841 20.6576 29.1819 20.6542 29.1792 20.6513C29.1765 20.6485 29.1732 20.6462 29.1696 20.6447C29.166 20.6431 29.1621 20.6423 29.1582 20.6423H27.3188C27.3188 20.6423 27.3028 20.6461 27.2977 20.6522V20.6541C27.2939 20.6616 27.2902 20.6667 27.2902 20.6733V22.755C27.2911 22.7705 27.3028 22.7864 27.3188 22.7864Z" fill="white"/>
<path d="M27.3188 26.2875H29.1582C29.1722 26.2875 29.1872 26.271 29.1872 26.2556V24.9328V24.1739C29.1873 24.17 29.1867 24.1661 29.1853 24.1624C29.1839 24.1588 29.1818 24.1555 29.179 24.1527C29.1763 24.1499 29.1731 24.1477 29.1695 24.1462C29.1659 24.1446 29.1621 24.1439 29.1582 24.1439H27.3188C27.3188 24.1439 27.3028 24.1476 27.2977 24.1528V24.1546C27.2939 24.1626 27.2902 24.1668 27.2902 24.1748V26.256C27.2911 26.271 27.3028 26.2875 27.3188 26.2875Z" fill="white"/>
<path d="M7.67856 4.19063V29.5969C7.67856 29.8083 7.79715 29.9813 7.93731 29.9813H24.6431C24.7837 29.9813 24.9023 29.8083 24.9023 29.5969V14.0672V4.19063C24.906 4.09801 24.8818 4.00641 24.8329 3.92766L24.8254 3.92016C24.8254 3.9136 24.8212 3.91266 24.8161 3.90938C24.7988 3.87854 24.7737 3.85276 24.7433 3.83459C24.713 3.81642 24.6784 3.80649 24.6431 3.80579H7.93778C7.79715 3.80579 7.67856 3.9811 7.67856 4.19063Z" fill="#4FC2E7"/>
<path d="M13.9715 29.9948H18.7087C18.7448 29.9948 18.779 29.9705 18.779 29.94V27.7781V26.5378C18.779 26.5087 18.7448 26.4872 18.7087 26.4872H13.9715C13.954 26.4871 13.9369 26.4921 13.9223 26.5017L13.9214 26.5036H13.9195C13.9101 26.5144 13.8998 26.5256 13.8998 26.5378V29.9405C13.8998 29.9709 13.9345 29.9948 13.9715 29.9948Z" fill="white"/>
<path d="M14.5641 28.3078H15.3867C15.3867 28.3078 15.3984 28.2998 15.3984 28.2933V27.7017V27.3623C15.3984 27.3525 15.3924 27.3483 15.3924 27.3483H14.5631L14.5533 27.352V27.3539L14.5505 27.3595V28.2942C14.5514 28.3003 14.557 28.3078 14.5641 28.3078Z" fill="#333F6B"/>
<path d="M8.80081 17.5654H23.9775C24.0985 17.5654 24.2189 17.5434 24.2189 17.5242V15.8709V14.9208C24.2189 14.8992 24.0985 14.8809 23.9775 14.8809H8.80034C8.74034 14.8809 8.66816 14.8865 8.63159 14.8936V14.8955C8.60253 14.9053 8.57159 14.9119 8.57159 14.9208V17.5242C8.57159 17.5429 8.66863 17.565 8.80081 17.565" fill="#333F6B"/>
<path d="M8.7905 21.9473H23.3382C23.4553 21.9473 23.5702 21.9248 23.5702 21.9056V20.2528V19.3022C23.5702 19.2811 23.4553 19.2628 23.3382 19.2628H8.79191C8.73331 19.2628 8.66441 19.2633 8.62925 19.275V19.2788C8.59972 19.2867 8.57159 19.2933 8.57159 19.3022V21.908C8.57159 21.9267 8.66394 21.9492 8.79144 21.9492" fill="#333F6B"/>
<path d="M12.4486 17.573H14.7511C14.7694 17.573 14.7877 17.5505 14.7877 17.5303V15.878V14.9274C14.7877 14.9058 14.7694 14.8875 14.7511 14.8875H12.4472C12.4421 14.8877 12.4372 14.8889 12.4326 14.8911C12.428 14.8933 12.4239 14.8964 12.4205 14.9002V14.902C12.4205 14.9114 12.4111 14.9184 12.4111 14.9274V17.5308C12.4111 17.5505 12.4266 17.573 12.4468 17.573" fill="#333F6B"/>
<path d="M12.4486 21.9553H14.7511C14.7694 21.9553 14.7877 21.9328 14.7877 21.9127V20.2608V19.3102C14.7877 19.2886 14.7694 19.2703 14.7511 19.2703H12.4472C12.4421 19.2705 12.4372 19.2717 12.4326 19.2739C12.428 19.2761 12.4239 19.2792 12.4205 19.283V19.2867C12.4205 19.2947 12.4111 19.3013 12.4111 19.3106V21.9155C12.4111 21.9342 12.4266 21.9567 12.4468 21.9567" fill="#333F6B"/>
<path d="M21.6422 17.573H23.9461C23.9649 17.573 23.9832 17.5505 23.9832 17.5303V15.878V14.9274C23.9832 14.9058 23.9649 14.8875 23.9461 14.8875H21.646C21.641 14.8877 21.6362 14.889 21.6318 14.8912C21.6273 14.8933 21.6234 14.8964 21.6202 14.9002V14.902C21.6197 14.9114 21.6104 14.9184 21.6104 14.9274V17.5308C21.6104 17.5505 21.6258 17.573 21.646 17.573" fill="#333F6B"/>
<path d="M21.6422 21.9553H23.9461C23.9649 21.9553 23.9832 21.9328 23.9832 21.9127V20.2608V19.3102C23.9832 19.2886 23.9649 19.2703 23.9461 19.2703H21.646C21.641 19.2706 21.6362 19.2718 21.6318 19.274C21.6273 19.2762 21.6234 19.2792 21.6202 19.283V19.2867C21.6202 19.2867 21.6104 19.3013 21.6104 19.3106V21.9155C21.6104 21.9342 21.6258 21.9567 21.646 21.9567" fill="#333F6B"/>
<path d="M17.8312 17.573H20.1323C20.1506 17.573 20.1679 17.5505 20.1679 17.5303V15.878V14.9274C20.1679 14.9058 20.1506 14.8875 20.1323 14.8875H17.8331C17.8225 14.888 17.8124 14.8926 17.805 14.9002V14.902C17.8012 14.9114 17.7951 14.9184 17.7951 14.9274V17.5308C17.7951 17.5505 17.812 17.573 17.8331 17.573" fill="#333F6B"/>
<path d="M17.8312 21.9553H20.1323C20.1506 21.9553 20.1679 21.9328 20.1679 21.9127V20.2608V19.3102C20.1679 19.2886 20.1506 19.2703 20.1323 19.2703H17.8331C17.8225 19.2708 17.8124 19.2754 17.805 19.283V19.2867C17.805 19.2867 17.7951 19.3013 17.7951 19.3106V21.9155C17.7951 21.9342 17.812 21.9567 17.8331 21.9567" fill="#333F6B"/>
<path d="M17.2594 28.3078H18.083C18.083 28.3078 18.0952 28.2998 18.0952 28.2933V27.7017V27.3623C18.0952 27.3525 18.0886 27.3483 18.0886 27.3483H17.2589L17.25 27.352V27.3539C17.2481 27.3558 17.2462 27.3595 17.2462 27.3595V28.2942C17.2472 28.3003 17.2533 28.3078 17.2594 28.3078Z" fill="#333F6B"/>
<path d="M12.4987 10.9036H20.1792C20.2401 10.9036 20.2978 10.8928 20.2978 10.8778V9.77251V9.13923C20.2978 9.1247 20.2401 9.11392 20.1792 9.11392H12.4992C12.4734 9.11315 12.4476 9.11535 12.4223 9.12048L12.4195 9.12142H12.4167C12.3984 9.12564 12.3839 9.13314 12.3839 9.13314V10.8783C12.3839 10.8924 12.4383 10.9036 12.4997 10.9036" fill="#DE374B"/>
<path d="M15.4429 9.17862V13.6416C15.4429 13.6763 15.4542 13.7091 15.4697 13.7091H17.2092C17.2237 13.7091 17.2364 13.6763 17.2364 13.6416V10.9135V9.17862C17.2373 9.16341 17.2342 9.14821 17.2275 9.13456V9.13362V9.12987C17.2195 9.12096 17.2143 9.11346 17.2143 9.11346H15.4687C15.4551 9.11346 15.4429 9.143 15.4429 9.17862Z" fill="#DE374B"/>
<path d="M15.4429 6.37361V10.8356C15.4429 10.8703 15.4542 10.9031 15.4697 10.9031H17.2092C17.2237 10.9031 17.2364 10.8703 17.2364 10.8356V8.10845V6.37361C17.2372 6.3581 17.2341 6.34264 17.2275 6.32861V6.32533C17.2228 6.31981 17.2184 6.31402 17.2143 6.30798H15.4687C15.4551 6.30798 15.4429 6.33705 15.4429 6.37361Z" fill="#DE374B"/>
</svg>
