<svg width="24" height="21" viewBox="0 0 24 21" fill="none" xmlns="http://www.w3.org/2000/svg">
<path fill-rule="evenodd" clip-rule="evenodd" d="M8.94116 9.12271C11.1503 9.12271 12.9412 7.32677 12.9412 5.11135C12.9412 2.89594 11.1503 1.1 8.94116 1.1C6.73202 1.1 4.94116 2.89594 4.94116 5.11135C4.94116 7.32677 6.73202 9.12271 8.94116 9.12271Z" stroke="#D1DADD" stroke-width="1.5" stroke-linecap="round"/>
<path fill-rule="evenodd" clip-rule="evenodd" d="M18.7647 10.6565C20.2267 10.6565 21.4118 9.46796 21.4118 8.00188C21.4118 6.5358 20.2267 5.34731 18.7647 5.34731C17.3028 5.34731 16.1177 6.5358 16.1177 8.00188C16.1177 9.46796 17.3028 10.6565 18.7647 10.6565Z" stroke="#D1DADD" stroke-width="1.5" stroke-linecap="round"/>
<path fill-rule="evenodd" clip-rule="evenodd" d="M20.3282 14.4708H15.6941C16.4273 15.4041 16.825 16.5566 16.8235 17.743V19.7799H23V17.1395C22.9996 15.6655 21.8036 14.4708 20.3282 14.4708V14.4708Z" stroke="#D1DADD" stroke-width="1.5" stroke-linecap="round"/>
<path fill-rule="evenodd" clip-rule="evenodd" d="M6.31412 12.4262H11.5088C12.9183 12.426 14.2701 12.9874 15.2669 13.9869C16.2636 14.9863 16.8235 16.3419 16.8235 17.7554V19.8H1V17.7554C1 14.8122 3.37921 12.4262 6.31412 12.4262Z" stroke="#D1DADD" stroke-width="1.5" stroke-linecap="round"/>
</svg>
