<svg width="92" height="80" viewBox="0 0 92 80" fill="none" xmlns="http://www.w3.org/2000/svg">
<path fill-rule="evenodd" clip-rule="evenodd" d="M76.2824 79.8988C85.5936 71.5752 91.4545 59.472 91.4545 46C91.4545 20.8961 71.1038 0.54541 46 0.54541C20.8961 0.54541 0.54541 20.8961 0.54541 46C0.54541 59.472 6.40636 71.5752 15.7176 79.8988L21.0543 60.0653C22.3419 56.4698 25.8825 54.1817 30.067 54.1817H38.4358C43.264 56.4698 48.7359 56.4698 53.2423 54.1817H61.933C66.1174 54.1817 69.6581 56.4698 70.9456 60.0653L76.2824 79.8988ZM45.5454 24.1818C54.0237 24.1818 60.5454 30.7036 60.5454 39.1818C60.5454 47.334 54.0237 54.1818 45.5454 54.1818C37.3933 54.1818 30.5454 47.334 30.5454 39.1818C30.5454 30.7036 37.3933 24.1818 45.5454 24.1818Z" fill="#D1DADD"/>
</svg>
